<svg width="1699" height="160" viewBox="0 0 1699 160" fill="none" xmlns="http://www.w3.org/2000/svg">
<defs>
<clipPath id="bisect-clip">
<rect width="1699" height="155" y="0"/>
</clipPath>
</defs>
<g clip-path="url(#bisect-clip)">
<path d="M0 153.608L42.7144 148.768C46.596 183.001 69.8855 199.161 100.633 199.161C128.143 199.161 149.161 185.911 149.161 164.59C149.161 147.144 138.161 140.036 109.685 133.911L79.598 127.125C39.1549 118.072 8.08523 102.25 8.08523 65.1071C8.08523 27.9639 44.3247 0.5 95.7684 0.5C147.212 0.5 181.519 27.6424 186.689 67.0362L143.331 72.1973C140.093 46.6794 121.651 31.8221 95.1243 31.8221C68.5973 31.8221 52.4099 45.7148 52.4099 62.8396C52.4099 79.9644 67.2922 85.447 93.1751 91.2681L123.584 98.0537C162.417 106.768 193.147 120.983 193.147 159.429C193.147 204.661 150.433 230.5 99.311 230.5C48.1893 230.5 5.83086 206.911 0 153.608Z" fill="black"/>
<path d="M212.268 169.125V67.0532H252.067V159.767C252.067 183.356 257.575 198.535 280.221 198.535C302.866 198.535 315.172 179.803 315.172 157.195V67.0701H354.971V226.642H315.816V205.321H315.494C305.46 220.821 288.967 230.517 267.61 230.517C231.37 230.517 212.285 207.267 212.285 169.142L212.268 169.125Z" fill="black"/>
<path d="M424.856 204.001V226.608H385.379V4.37506H425.178V88.6791C433.263 76.4108 448.789 63.1611 476.3 63.1611C518.048 63.1611 548.779 95.7862 548.779 146.822C548.779 197.858 518.048 230.483 476.3 230.483C450.095 230.483 433.585 217.893 424.856 204.001ZM507.674 146.822C507.674 117.108 493.758 93.1972 465.604 93.1972C437.45 93.1972 423.212 117.751 423.212 146.822C423.212 175.894 437.772 200.447 465.604 200.447C493.436 200.447 507.674 176.537 507.674 146.822Z" fill="black"/>
<path d="M581.781 97.7322H553.305V67.0532H581.781V45.0888C581.781 15.0527 598.935 0.516968 629.665 0.516968C639.056 0.516968 645.514 1.48151 651.989 2.46297V32.8205C647.141 32.1775 644.87 31.856 640.344 31.856C629.021 31.856 621.58 36.3741 621.58 47.6778V67.0532H653.938V97.7322H621.58V226.625H581.781V97.7322Z" fill="black"/>
<path d="M668.82 67.0363H706.992V96.7508C714.433 78.6615 731.587 63.1612 756.181 63.1612C759.419 63.1612 762.012 63.4827 764.589 63.4827V101.269C761.673 100.947 758.436 100.626 753.588 100.626C727.383 100.626 708.297 116.126 708.297 146.179V226.608H668.82V67.0363Z" fill="black"/>
<path d="M768.809 183.001C768.809 152.643 791.776 140.037 826.727 133.251L847.118 129.054C864.272 125.501 871.713 122.269 871.713 110.322C871.713 98.3753 861.679 90.2867 844.542 90.2867C824.812 90.2867 812.184 102.233 810.896 121.626L771.419 118.715C774.334 84.8041 802.15 63.1612 844.542 63.1612C886.934 63.1612 910.868 82.8581 910.868 117.429V226.608H873.34V209.162H873.018C865.577 220.787 849.407 230.483 824.812 230.483C794.081 230.483 768.842 212.715 768.842 183.001H768.809ZM872.984 167.179V149.411C844.508 153.929 829.304 157.804 819.591 163.625C812.472 167.822 807.947 173.965 807.947 182.358C807.947 195.286 819.269 204.322 835.779 204.322C856.492 204.322 872.984 190.751 872.984 167.179Z" fill="black"/>
<path d="M930.902 146.822C930.902 97.0723 964.226 63.1612 1011.79 63.1612C1056.11 63.1612 1079.1 89.0007 1087.18 119.037L1048.67 127.108C1044.79 108.055 1033.79 93.1972 1012.43 93.1972C989.465 93.1972 971.99 111.608 971.99 146.501C971.99 181.393 989.143 200.447 1012.75 200.447C1033.15 200.447 1045.11 187.519 1049.96 166.214L1088.47 174.608C1078.44 205.947 1055.47 230.483 1011.47 230.483C963.904 230.483 930.902 197.215 930.902 146.822Z" fill="black"/>
<path d="M1121.17 204.644C1118.58 199.144 1117.61 192.697 1117.61 183.322V97.7153H1090.1V67.0362H1117.61V16.6433H1157.41V67.0362H1190.41V97.7153H1157.41V177.501C1157.41 191.715 1164.21 196.555 1176.49 196.555C1182.97 196.555 1186.53 196.234 1191.38 195.269V225.627C1182.97 227.234 1174.22 228.216 1163.54 228.216C1141.54 228.216 1126.98 220.144 1121.15 204.627L1121.17 204.644Z" fill="black"/>
<path d="M1209.82 169.125V67.0532H1249.62V159.767C1249.62 183.356 1255.13 198.535 1277.77 198.535C1300.42 198.535 1312.72 179.803 1312.72 157.195V67.0701H1352.52V226.642H1313.37V205.321H1313.04C1303.01 220.821 1286.52 230.517 1265.16 230.517C1228.92 230.517 1209.84 207.267 1209.84 169.142L1209.82 169.125Z" fill="black"/>
<path d="M1382.93 67.0363H1421.1V96.7508C1428.54 78.6615 1445.7 63.1612 1470.29 63.1612C1473.53 63.1612 1476.12 63.4827 1478.7 63.4827V101.269C1475.78 100.947 1472.55 100.626 1467.7 100.626C1441.49 100.626 1422.41 116.126 1422.41 146.179V226.608H1382.93V67.0363Z" fill="black"/>
<path d="M1480.65 146.822C1480.65 95.1432 1515.92 63.1612 1560.89 63.1612C1605.86 63.1612 1637.57 95.7863 1637.57 145.536V155.875H1519.14C1521.09 188.179 1539.53 202.072 1561.21 202.072C1581.28 202.072 1593.89 192.054 1598.42 173.965L1636.61 178.161C1628.2 205.947 1605.54 230.483 1560.57 230.483C1515.6 230.483 1480.65 202.055 1480.65 146.822ZM1597.79 128.733C1596.82 108.376 1582.26 91.2682 1561.23 91.2682C1540.19 91.2682 1523.06 106.125 1520.14 128.733H1597.79Z" fill="black"/>
<path d="M1699 88.6791C1699 102.893 1687.46 114.18 1672.69 114.18C1657.93 114.18 1646.29 102.876 1646.29 88.6791C1646.29 74.4818 1657.83 63.1612 1672.69 63.1612C1687.56 63.1612 1699 74.4649 1699 88.6791ZM1693.61 88.6791C1693.61 77.1555 1684.56 68.1193 1672.69 68.1193C1660.83 68.1193 1651.68 77.1555 1651.68 88.6791C1651.68 100.203 1660.73 109.138 1672.69 109.138C1684.66 109.138 1693.61 100.203 1693.61 88.6791ZM1683.25 97.8169C1683.36 99.6444 1683.68 100.609 1684.54 102.013H1679.69C1678.93 101.049 1678.73 99.6444 1678.61 97.8169L1678.39 95.0248C1678.17 92.0127 1677.3 91.0482 1674.61 91.0482H1667.17V102.03H1662.42V74.6849H1674.07C1679.88 74.6849 1683.66 77.3754 1683.66 82.3335C1683.66 84.8041 1682.8 87.3931 1679.68 88.7976C1681.73 89.6606 1682.69 91.3866 1682.91 93.8572L1683.24 97.8338L1683.25 97.8169ZM1678.85 82.8581C1678.85 80.2691 1677.24 78.983 1674.1 78.983H1667.2V86.7331H1674.54C1677.24 86.7331 1678.85 85.3286 1678.85 82.8581Z" fill="black"/>
</g>
<!-- Fracture line -->
<line x1="0" y1="155" x2="1699" y2="155" stroke="black" stroke-width="2"/>
</svg>
