<svg width="112" height="112" viewBox="0 0 112 112" fill="none" xmlns="http://www.w3.org/2000/svg">
<g clip-path="url(#clip0_104_153)">
<path d="M95.3015 16.5295C84.7615 5.98945 70.7515 0.189453 55.8515 0.189453C25.0915 0.189453 0.0615234 25.2195 0.0615234 55.9795C0.0615234 70.8795 5.86152 84.8895 16.4015 95.4295C26.9415 105.969 40.9515 111.769 55.8515 111.769C70.7515 111.769 84.7615 105.969 95.3015 95.4295C105.842 84.8895 111.642 70.8795 111.642 55.9795C111.642 41.0795 105.842 27.0695 95.3015 16.5295ZM55.8515 109.839C41.4615 109.839 27.9415 104.239 17.7715 94.0595C7.59152 83.8895 1.99152 70.3695 1.99152 55.9795C1.99152 41.5895 7.59152 28.0695 17.7715 17.8995C27.9415 7.71945 41.4615 2.11945 55.8515 2.11945C70.2415 2.11945 83.7615 7.71945 93.9315 17.8995C104.102 28.0695 109.712 41.5995 109.712 55.9795C109.712 85.6795 85.5515 109.839 55.8515 109.839Z" fill="black"/>
<path d="M55.8516 86.8395C72.9016 86.8395 86.7116 73.0195 86.7116 55.9795H55.8516V86.8395Z" fill="black"/>
<path d="M24.9912 55.9791H55.8512V25.1191C38.8012 25.1191 24.9912 38.9391 24.9912 55.9791Z" fill="black"/>
<path d="M24.2811 23.6095C23.6111 23.0495 22.5711 23.0195 22.1011 23.5695L18.1211 28.3195L20.5811 30.3895L24.5211 25.6995C25.0211 25.1095 25.0111 24.2295 24.2811 23.6095Z" fill="black"/>
<path d="M29.1116 29.1092C29.6616 28.4492 29.5816 27.4292 28.7816 26.7492C28.0716 26.1492 27.0216 26.3192 26.5416 26.8792L22.3516 31.8692L24.9516 34.0592L29.1016 29.1092H29.1116Z" fill="black"/>
<path d="M55.8519 4.33984C27.3319 4.33984 4.21191 27.4598 4.21191 55.9798C4.21191 84.4998 27.3319 107.62 55.8519 107.62C84.3719 107.62 107.492 84.4998 107.492 55.9798C107.492 27.4598 84.3719 4.33984 55.8519 4.33984ZM48.3019 7.15984H52.3919L56.0919 16.8398L59.7919 7.15984H63.8819V20.7498H61.1619V11.2598L57.5819 20.7498H54.6119L51.0319 11.2598V20.7498H48.3119V7.15984H48.3019ZM14.0219 29.5198L20.6519 21.6198C22.0219 19.9798 23.9419 18.6798 25.7719 20.2098C26.3319 20.6798 26.5719 20.8398 27.2619 22.0898C27.4219 22.5298 27.5419 23.3298 27.2419 24.1198C28.8319 23.1398 30.5219 23.4598 31.6119 24.5198C33.2919 26.1498 33.0419 28.0398 31.4419 29.9498L24.4519 38.2898L14.0219 29.5398V29.5198ZM55.8519 88.9698C37.6319 88.9698 22.8619 74.1998 22.8619 55.9798C22.8619 37.7598 37.6319 22.9898 55.8519 22.9898C74.0719 22.9898 88.8419 37.7598 88.8419 55.9798C88.8419 74.1998 74.0719 88.9698 55.8519 88.9698ZM86.5919 38.5498L84.1219 35.4798L89.0419 28.2898L89.0119 28.2498L80.9519 31.5598L78.4619 28.5098L86.9919 17.5398L89.0919 20.1398L83.7519 27.1298L91.9119 23.6298L94.1719 26.4198L89.0519 33.6698L96.9919 29.8998L99.0919 32.4998L86.5919 38.5598V38.5498Z" fill="black"/>
</g>
<defs>
<clipPath id="clip0_104_153">
<rect width="111.58" height="111.58" fill="white" transform="translate(0.0615234 0.189453)"/>
</clipPath>
</defs>
</svg>
