<svg width="187" height="26" viewBox="0 0 187 26" fill="none" xmlns="http://www.w3.org/2000/svg">
<g clip-path="url(#clip0_104_167)">
<path d="M11.5447 23.1955C10.5279 24.7101 8.94973 25.6846 7.12798 25.8964H5.43333C2.39356 25.5892 0.540039 23.7463 0.540039 21.3102C0.540039 19.5415 1.57801 17.9633 3.46331 16.9042L3.77046 17.169C2.77486 18.2599 2.35119 19.4991 2.35119 21.0031C2.35119 23.5239 4.00348 25.2185 6.42894 25.2185C9.54286 25.2185 10.8138 23.3332 10.8138 19.4991V4.68152C10.8138 2.42552 10.8138 1.93831 8.62139 1.93831C8.31424 1.93831 8.00708 1.98067 7.62579 1.98067V1.37695H14.8174V1.98067H12.6991V17.4126C12.6991 19.7427 12.5826 21.5856 11.5447 23.2061V23.1955Z" fill="black"/>
<path d="M17.5815 2.06511H17.3379V1.49316H23.1209V2.06511H21.0979V21.6277C21.0979 24.212 21.0979 25.1547 22.8349 25.1547H23.1527V25.7266H17.4014V25.1547H19.3821V5.59209C19.3821 2.93361 19.3821 2.06511 17.5709 2.06511H17.5815Z" fill="black"/>
<path d="M30.8846 25.2073H31.0752V25.7792H25.377V25.2073H27.4953V4.83972C27.4953 2.79555 27.4529 2.1071 25.6841 2.1071H25.3875V1.53516H28.7451L34.4857 15.3359L39.8132 1.53516H43.5097V2.1071H41.4337V21.9451C41.4337 24.3282 41.4761 25.2073 43.2873 25.2073H43.5097V25.7792H37.5043V25.2073H39.6226V4.08772L34.0726 18.4605L28.3744 4.80795V21.6803C28.3744 24.4447 28.4061 25.2073 30.9057 25.2073H30.8846Z" fill="black"/>
<path d="M52.1736 25.1653H52.3643V25.7372H46.666V25.1653H48.7843V4.79773C48.7843 2.75356 48.742 2.06511 46.9732 2.06511H46.666V1.49316H50.0235L55.7642 15.294L61.0917 1.49316H64.7882V2.06511H62.7122V21.8925C62.7122 24.2756 62.744 25.1547 64.5657 25.1547H64.7882V25.7266H58.7827V25.1547H60.9011V4.03514L55.3511 18.4079L49.6528 4.75536V21.6277C49.6528 24.3921 49.6952 25.1547 52.1842 25.1547L52.1736 25.1653Z" fill="black"/>
<path d="M77.4141 21.6905C77.4141 24.5502 77.4459 25.1857 79.9666 25.1857H80.6869V25.7471H73.4634V25.1857H75.7406V14.7636L70.286 3.58955C69.6611 2.30797 69.4598 2.2762 68.3159 2.2762H67.8711V1.71484H73.8871V2.2762H71.504L77.1069 13.5668L80.6975 4.57456C80.9411 3.97084 81.047 3.40949 81.047 3.21884C81.047 2.42448 80.6975 2.2762 79.6277 2.2762H79.2464V1.71484H83.9491V2.2762H82.3286L77.4247 14.6154V21.6905H77.4141Z" fill="black"/>
<path d="M105.184 25.6633C102.187 25.6633 99.6451 24.9642 97.5056 23.5026C94.1587 21.2678 92.1992 17.6031 92.1992 13.6842C92.1992 10.0619 93.449 7.12804 96.0228 4.74494C98.3635 2.58427 101.753 1.27091 105.375 1.27091C107.165 1.27091 108.923 1.63103 110.713 2.33007V0.0634766H111.264V9.14043H110.713V6.1748C110.713 3.56928 108.722 2.10765 105.026 2.10765C102.844 2.10765 100.778 2.76432 98.946 3.93998C95.6732 6.05829 94.0739 9.06629 94.0739 13.0593C94.0739 16.2474 94.9742 18.7682 96.9548 20.9288C99.179 23.3861 102.335 24.7418 105.534 24.7418C108.298 24.7418 110.681 23.8627 112.397 22.1786L112.863 22.6553C110.957 24.5935 108.182 25.6633 105.184 25.6633Z" fill="black"/>
<path d="M129.227 21.9447C129.227 24.3278 129.269 25.1963 131.08 25.1963H131.313V25.7682H125.297V25.1963H127.384V8.72645H119.514V21.6693C119.514 24.3913 119.557 25.1857 121.897 25.1857H122.236V25.7577H115.574V25.1857H117.661V4.9029C117.661 2.81636 117.661 2.18087 115.881 2.18087H115.574V1.57715H121.633V2.18087H119.514V8.09095H127.384V4.9029C127.384 2.78459 127.384 2.18087 125.647 2.18087H125.308V1.57715H131.324V2.18087H129.237V21.9447H129.227Z" fill="black"/>
<path d="M154.212 22.486C151.745 24.5832 148.482 25.78 144.871 25.78C141.259 25.78 138.378 24.6573 135.953 22.3378C133.559 20.0182 132.341 17.1055 132.341 13.5891C132.341 9.85032 133.707 6.63049 136.408 4.2368C138.802 2.09731 142.223 0.836914 145.676 0.836914C148.408 0.836914 150.993 1.62069 153.27 3.18824C156.765 5.58193 158.544 8.98182 158.544 13.2078C158.544 16.6925 156.945 20.1241 154.212 22.486ZM153.492 5.243C151.247 2.84931 148.366 1.6101 145.135 1.6101C142.17 1.6101 139.554 2.70103 137.467 4.75579C135.222 6.95883 134.163 9.73382 134.163 13.1761C134.163 20.2089 138.908 24.9962 145.443 24.9962C148.514 24.9962 151.247 23.9053 153.301 21.8929C155.462 19.764 156.723 16.7666 156.723 13.515C156.723 10.2634 155.589 7.45663 153.492 5.243Z" fill="black"/>
<path d="M182.386 22.486C179.918 24.5832 176.656 25.78 173.044 25.78C169.433 25.78 166.552 24.6573 164.116 22.3378C161.722 20.0182 160.504 17.1055 160.504 13.5891C160.504 9.85032 161.87 6.63049 164.571 4.2368C166.965 2.09731 170.386 0.836914 173.839 0.836914C176.571 0.836914 179.156 1.62069 181.433 3.18824C184.653 5.39128 186.421 8.46283 186.676 12.244V14.0764C186.432 17.2538 184.886 20.3254 182.375 22.4966L182.386 22.486ZM181.666 5.243C179.42 2.84931 176.54 1.6101 173.309 1.6101C170.343 1.6101 167.727 2.70103 165.641 4.75579C163.406 6.95883 162.336 9.73382 162.336 13.1761C162.336 20.2089 167.081 24.9962 173.616 24.9962C176.688 24.9962 179.431 23.9053 181.475 21.8929C183.636 19.764 184.896 16.7666 184.896 13.515C184.896 10.2634 183.752 7.45663 181.666 5.243Z" fill="black"/>
</g>
<defs>
<clipPath id="clip0_104_167">
<rect width="186.146" height="25.8328" fill="white" transform="translate(0.540039 0.0634766)"/>
</clipPath>
</defs>
</svg>
