<svg width="199" height="66" viewBox="0 0 199 66" fill="none" xmlns="http://www.w3.org/2000/svg">
<g clip-path="url(#clip0_104_155)">
<path d="M91.249 37.4617C91.249 37.4617 90.7601 37.7579 89.7379 37.7579C88.4195 37.7579 87.2491 36.9728 86.6121 36.558C85.8121 36.0247 84.4937 35.2692 83.1752 34.8544C80.642 34.8544 78.9828 34.1433 77.6791 32.4693C76.3903 30.8101 75.7236 28.662 75.7236 26.1732C75.7236 22.5141 77.1162 19.566 79.5605 18.2476C80.5679 17.7143 81.8123 17.418 83.0715 17.418C87.5899 17.418 90.3749 20.7067 90.3749 26.0399C90.3749 29.7286 89.0565 32.4841 87.0269 33.8322C87.4862 34.0099 88.1528 34.4396 88.538 34.6914C89.1454 35.0618 89.8861 35.4025 90.6416 35.4025C91.3971 35.4025 92.1526 35.284 92.1526 35.284L91.249 37.5061V37.4617ZM86.0047 22.1882C85.7381 21.3289 84.8344 20.0401 83.0271 20.0401C81.8864 20.0401 80.879 20.6327 80.3901 21.5363C79.7976 22.6326 79.5309 24.1288 79.5309 26.1732C79.5309 29.1064 80.0198 30.9286 81.042 31.6693C81.5753 32.0545 82.2567 32.2619 83.0715 32.2619C85.4418 32.2619 86.4343 30.4545 86.4343 26.1288C86.4343 24.3955 86.2862 23.1511 85.9899 22.203L86.0047 22.1882Z" fill="black"/>
<path d="M101.145 34.9283C100.73 34.6321 100.389 34.2173 100.167 33.7136C99.3671 34.4987 98.1967 34.9135 96.8783 34.9135C95.1154 34.9135 93.6043 34.0839 93.1895 32.884C92.9969 32.321 92.9229 31.6692 92.9229 30.3952V22.3955L96.1375 21.7881V29.8174C96.1375 30.9433 96.2412 31.5211 96.4042 31.8618C96.582 32.2025 97.0708 32.4544 97.5449 32.4544C98.3449 32.4544 99.3226 31.8618 99.5745 31.2544V22.4695L102.7 21.8177V31.3581C102.7 32.1877 102.967 33.0469 103.456 33.6247L101.13 34.9432L101.145 34.9283Z" fill="black"/>
<path d="M108.937 29.3588V29.4625C108.937 31.3884 109.885 32.4846 111.574 32.4846C112.7 32.4846 113.752 32.0698 114.744 31.2402L116.018 33.1957C114.581 34.366 113.07 34.929 111.307 34.929C107.722 34.929 105.396 32.3957 105.396 28.4551C105.396 26.2034 105.856 24.722 106.952 23.5072C107.974 22.3665 109.219 21.8184 110.878 21.8184C112.315 21.8184 113.678 22.3072 114.492 23.1368C115.633 24.3072 116.152 25.996 116.152 28.6033V29.3588H108.922H108.937ZM112.759 26.8256C112.759 25.8923 112.655 25.4034 112.374 24.9442C112.063 24.4553 111.589 24.2183 110.937 24.2183C109.693 24.2183 108.982 25.196 108.982 26.9293V26.9737H112.759V26.8256Z" fill="black"/>
<path d="M121.278 29.3588V29.4625C121.278 31.3884 122.226 32.4846 123.915 32.4846C125.041 32.4846 126.093 32.0698 127.085 31.2402L128.359 33.1957C126.922 34.366 125.411 34.929 123.648 34.929C120.063 34.929 117.737 32.3957 117.737 28.4551C117.737 26.2034 118.197 24.722 119.293 23.5072C120.315 22.3665 121.559 21.8184 123.219 21.8184C124.656 21.8184 126.018 22.3072 126.833 23.1368C127.974 24.3072 128.492 25.996 128.492 28.6033V29.3588H121.263H121.278ZM125.115 26.8256C125.115 25.8923 125.011 25.4034 124.73 24.9442C124.404 24.4553 123.944 24.2183 123.293 24.2183C122.048 24.2183 121.337 25.196 121.337 26.9293V26.9737H125.115V26.8256Z" fill="black"/>
<path d="M137.454 34.5879V26.4549C137.454 25.0327 137.217 24.6179 136.358 24.6179C135.706 24.6179 134.847 25.0624 134.091 25.7438V34.5731H130.817V25.5216C130.817 24.455 130.669 23.418 130.373 22.5884L133.277 21.7588C133.573 22.2773 133.736 22.8106 133.736 23.3143C134.225 22.9736 134.64 22.6773 135.173 22.381C135.825 22.0403 136.684 21.8477 137.425 21.8477C138.817 21.8477 140.032 22.5736 140.432 23.655C140.595 24.1143 140.669 24.6624 140.669 25.4327V34.5583H137.439L137.454 34.5879Z" fill="black"/>
<path d="M147.795 34.9733C146.254 34.9733 144.565 34.4844 142.743 33.5363L143.913 31.1512C144.921 31.7586 146.654 32.5734 148.061 32.5734C148.995 32.5734 149.721 31.966 149.721 31.1512C149.721 30.292 149.113 29.8624 147.795 29.6105L146.328 29.3439C145.499 29.1957 144.476 28.618 144.032 28.0698C143.588 27.5365 143.321 26.6328 143.321 25.8181C143.321 23.3737 145.247 21.7441 148.15 21.7441C150.15 21.7441 151.469 22.3515 152.624 22.9145L151.543 25.107C150.298 24.47 149.395 24.2033 148.476 24.2033C147.558 24.2033 146.891 24.6922 146.891 25.4181C146.891 26.0551 147.306 26.3958 148.447 26.6921L149.958 27.0773C151.498 27.4624 152.017 27.9365 152.446 28.4994C152.906 29.092 153.128 29.7883 153.128 30.6179C153.128 33.2104 150.98 34.9585 147.78 34.9585L147.795 34.9733Z" fill="black"/>
<path d="M158.654 34.8694C157.261 34.8694 156.135 34.2175 155.75 33.1657C155.513 32.5287 155.454 32.1435 155.454 30.3658V21.0476C155.454 19.4181 155.41 18.4107 155.291 17.2848L158.639 16.5293C158.758 17.2108 158.802 18.0255 158.802 19.7736V29.5066C158.802 31.6547 158.832 31.9509 159.024 32.2917C159.143 32.5139 159.409 32.6324 159.676 32.6324C159.795 32.6324 159.869 32.6324 160.046 32.588L160.609 34.5434C160.046 34.7657 159.365 34.8842 158.654 34.8842V34.8694Z" fill="black"/>
<path d="M170.653 35.2105C169.898 34.8994 169.216 34.3364 168.89 33.6994C168.653 33.9364 168.372 34.1883 168.135 34.3512C167.527 34.7957 166.639 35.0327 165.616 35.0327C162.831 35.0327 161.32 33.6105 161.32 31.1217C161.32 28.1885 163.35 26.8256 167.32 26.8256C167.557 26.8256 167.779 26.8256 168.046 26.8552V26.3367C168.046 24.9442 167.779 24.4849 166.579 24.4849C165.528 24.4849 164.313 25.0034 162.965 25.9071L161.572 23.5664C162.224 23.1516 162.713 22.9146 163.602 22.5443C164.816 22.0258 165.868 21.8184 167.024 21.8184C169.127 21.8184 170.564 22.6035 171.053 23.9961C171.216 24.5146 171.29 24.8997 171.275 26.2478L171.201 30.4403C171.172 31.8032 171.276 32.3957 172.372 33.2253L170.638 35.2253L170.653 35.2105ZM167.868 29.1218C165.602 29.1218 164.816 29.5366 164.816 31.0328C164.816 32.0106 165.424 32.6624 166.253 32.6624C166.861 32.6624 167.468 32.3513 167.957 31.8032L168.002 29.1218H167.853H167.868Z" fill="black"/>
<path d="M181.319 34.5879V26.4549C181.319 25.0327 181.082 24.6179 180.223 24.6179C179.557 24.6179 178.712 25.0624 177.957 25.7438V34.5731H174.683V25.5216C174.683 24.455 174.535 23.418 174.238 22.5884L177.142 21.7588C177.438 22.2773 177.601 22.8106 177.601 23.3143C178.09 22.9736 178.505 22.6773 179.038 22.381C179.705 22.0403 180.549 21.8477 181.29 21.8477C182.682 21.8477 183.897 22.5736 184.297 23.655C184.475 24.1143 184.534 24.6624 184.534 25.4327V34.5583H181.319V34.5879Z" fill="black"/>
<path d="M195.467 34.5877C195.364 34.3951 195.319 34.2025 195.275 33.8618C194.475 34.5729 193.512 34.9136 192.386 34.9136C189.216 34.9136 187.216 32.4545 187.216 28.5731C187.216 24.6918 189.394 21.9808 192.564 21.9808C193.467 21.9808 194.179 22.203 194.786 22.6919C194.741 22.4252 194.682 21.566 194.682 20.8401V16.5439L197.927 17.0624V30.0546C197.927 33.1359 198.164 34.1285 198.386 34.6173H195.453L195.467 34.5877ZM194.727 25.3732C194.119 24.8399 193.527 24.5733 192.949 24.5733C191.482 24.5733 190.845 25.788 190.845 28.5731C190.845 31.3582 191.408 32.1434 193.112 32.1434C193.719 32.1434 194.401 31.7286 194.727 31.3434V25.3881V25.3732Z" fill="black"/>
<path d="M83.4423 58.4837C81.3386 58.4837 79.5609 57.7578 78.2869 56.3801C76.8647 54.8394 76.2129 52.7654 76.2129 49.8914C76.2129 46.6915 77.0721 44.425 78.8054 42.8547C80.0053 41.788 81.4423 41.2695 83.1756 41.2695C84.9089 41.2695 86.494 41.8325 87.768 42.9287L86.8643 44.1731C85.5014 43.2398 84.5237 42.8843 83.22 42.8843C81.2646 42.8843 79.7239 43.788 79.0424 45.7138C78.598 46.9582 78.3758 48.3804 78.3758 49.9655C78.3758 52.158 78.7906 53.9505 79.5461 55.0468C80.3016 56.1431 82.0053 56.8245 83.6052 56.8245C84.657 56.8245 85.5607 56.6023 86.2718 56.1727V51.0766H82.9089L82.5238 49.4174H88.168V57.2245C86.968 58.0096 85.1607 58.4985 83.4571 58.4985L83.4423 58.4837Z" fill="black"/>
<path d="M96.6857 58.5276C93.3376 58.5276 91.4414 56.0684 91.4414 52.0537C91.4414 48.0391 93.4117 45.6836 96.6116 45.6836C98.6411 45.6836 99.9596 46.6169 100.789 47.802C101.545 48.8983 101.915 50.3353 101.915 52.3204C101.915 56.3795 99.7374 58.5276 96.6857 58.5276ZM99.1745 48.8242C98.656 47.7428 97.5893 47.2687 96.582 47.2687C95.5005 47.2687 94.508 47.7872 94.0932 48.5872C93.708 49.3427 93.5006 50.3205 93.5006 51.7574C93.5006 53.4611 93.7969 54.9869 94.2561 55.7425C94.7005 56.4684 95.6783 56.9572 96.7153 56.9572C97.9893 56.9572 98.9374 56.3054 99.3522 55.1203C99.6189 54.3648 99.7226 53.6833 99.7226 52.4833C99.7226 50.7797 99.5448 49.6242 99.1596 48.8242H99.1745Z" fill="black"/>
<path d="M109.485 58.3353H107.604L103.233 46.158L105.189 45.7432L108.018 54.1132C108.359 55.1206 108.611 56.1872 108.611 56.1872H108.655C108.655 56.1872 108.848 55.2391 109.248 54.1429L112.033 46.0691H114.063L109.5 58.3501L109.485 58.3353Z" fill="black"/>
<path d="M117.825 52.4539V52.7501C117.825 53.9057 117.974 54.7797 118.388 55.4167C119.07 56.4685 120.196 56.913 121.411 56.913C122.625 56.913 123.529 56.5426 124.388 55.7723L125.114 56.987C124.047 57.9648 122.581 58.4981 121.011 58.4981C117.648 58.4981 115.618 56.0537 115.618 52.0391C115.618 49.9799 116.063 48.6762 117.085 47.4466C118.063 46.3059 119.262 45.7578 120.714 45.7578C122.033 45.7578 123.173 46.2171 124.018 47.0763C125.07 48.1577 125.41 49.2984 125.41 52.202V52.4687H117.825V52.4539ZM122.833 48.3059C122.418 47.654 121.559 47.2244 120.64 47.2244C118.907 47.2244 117.929 48.4985 117.84 51.0169H123.41C123.381 49.6984 123.218 48.8984 122.848 48.3059H122.833Z" fill="black"/>
<path d="M134.018 47.8913C133.899 47.8468 133.677 47.7876 133.484 47.7876C132.759 47.7876 132.018 48.0987 131.455 48.6616C130.892 49.2245 130.744 49.5949 130.744 50.5874V58.202H128.833V48.8246C128.833 47.0468 128.418 46.2321 128.418 46.2321L130.314 45.7136C130.314 45.7136 130.773 46.6617 130.699 47.6839C131.573 46.4395 132.877 45.6543 134.121 45.6543C134.433 45.6543 134.773 45.7728 134.773 45.7728L133.988 47.8468L134.018 47.8913Z" fill="black"/>
<path d="M143.618 58.2168V49.9949C143.618 48.706 143.529 48.3801 143.173 47.9653C142.907 47.6542 142.388 47.4468 141.825 47.4468C140.847 47.4468 139.336 48.232 138.462 49.1504V58.202H136.611V48.8245C136.611 47.0913 136.151 46.2617 136.151 46.2617L138.003 45.7432C138.003 45.7432 138.448 46.6468 138.448 47.6394C139.722 46.3654 140.981 45.758 142.284 45.758C143.588 45.758 144.773 46.4691 145.262 47.5357C145.455 47.9801 145.558 48.469 145.558 48.943V58.1723H143.633L143.618 58.2168Z" fill="black"/>
<path d="M162.565 58.2166V49.2392C162.565 48.0688 162.032 47.4615 161.01 47.4615C159.913 47.4615 159.054 48.1725 157.78 49.3429V58.2314H155.854V49.5947C155.854 48.8688 155.78 48.3799 155.514 48.0392C155.217 47.6985 154.832 47.5503 154.269 47.5503C153.336 47.5503 152.432 48.0096 151.173 49.1651V58.2462H149.336V48.8244C149.336 47.0615 148.892 46.2319 148.892 46.2319L150.743 45.7874C150.743 45.7874 151.188 46.7356 151.188 47.5948C152.003 46.6911 153.484 45.7578 154.728 45.7578C155.973 45.7578 157.128 46.4837 157.558 47.7874C158.728 46.543 160.225 45.7578 161.469 45.7578C163.276 45.7578 164.521 47.1207 164.521 49.0614V58.2314H162.565V58.2166Z" fill="black"/>
<path d="M169.749 52.4539V52.7501C169.749 53.9057 169.897 54.7797 170.312 55.4167C170.994 56.4685 172.12 56.913 173.334 56.913C174.549 56.913 175.453 56.5426 176.312 55.7723L177.038 56.987C175.956 57.9648 174.505 58.4981 172.934 58.4981C169.572 58.4981 167.542 56.0537 167.542 52.0391C167.542 49.9799 167.986 48.6762 169.009 47.4466C169.986 46.3059 171.186 45.7578 172.638 45.7578C173.957 45.7578 175.097 46.2171 175.927 47.0763C176.979 48.1577 177.319 49.2984 177.319 52.202V52.4687H169.734L169.749 52.4539ZM174.757 48.3059C174.342 47.654 173.483 47.2244 172.564 47.2244C170.831 47.2244 169.853 48.4985 169.764 51.0169H175.334C175.305 49.6984 175.142 48.8984 174.771 48.3059H174.757Z" fill="black"/>
<path d="M187.764 58.2168V49.9949C187.764 48.706 187.66 48.3801 187.32 47.9653C187.053 47.6542 186.534 47.4468 185.986 47.4468C185.009 47.4468 183.498 48.232 182.624 49.1504V58.202H180.772V48.8245C180.772 47.0913 180.312 46.2617 180.312 46.2617L182.164 45.7432C182.164 45.7432 182.609 46.6468 182.609 47.6394C183.883 46.3654 185.142 45.758 186.446 45.758C187.749 45.758 188.934 46.4691 189.423 47.5357C189.616 47.9801 189.72 48.469 189.72 48.943V58.1723H187.794L187.764 58.2168Z" fill="black"/>
<path d="M197.882 47.5056H195.348V55.3423C195.348 56.6904 195.719 57.1497 196.904 57.1497C197.437 57.1497 197.763 57.0756 198.104 56.9126L198.37 58.1274C197.763 58.4385 197.082 58.6163 196.222 58.6163C195.585 58.6163 195.097 58.4978 194.637 58.2756C193.778 57.8608 193.467 57.0756 193.467 55.8608V47.5204H191.882V46.0834H193.467C193.467 44.9131 193.66 43.002 193.66 43.002L195.659 42.5576C195.659 42.5576 195.422 44.4538 195.422 46.0686H198.474L197.882 47.5056Z" fill="black"/>
<path d="M29.1332 21.5363C27.5777 21.6251 26.0519 23.6547 26.7037 25.9509C26.4667 26.0398 25.7852 26.025 25.5778 25.5509C25.4148 26.3064 23.889 27.1657 22.7779 27.0472C23.3853 26.3805 23.8001 24.8843 25 24.0991C26.2 23.2992 26.7481 22.7658 27.1777 21.4029C26.6148 21.6696 23.7112 22.4103 22.8964 21.5214C24.8075 21.24 27.0592 20.1733 28.1851 19.4623L27.7407 18.9882C26.5407 19.6697 24.9408 20.2178 24.126 20.4696C23.8445 18.0845 26.1111 18.1734 26.2889 18.8252C27.2222 17.7142 26.5704 16.1142 25.8741 15.9365C26.5852 14.0254 25.8741 12.8551 25.2667 12.144C25.1186 14.1736 22.852 14.4847 22.6001 16.055C22.5113 14.8254 22.4224 11.4922 22.3335 9.86262C22.1557 6.84051 18.3336 5.78869 17.7559 5.78869C15.2671 5.90721 15.0301 5.58129 15.0893 4.42578C13.8301 5.86276 14.2597 7.13679 15.3263 7.75899C15.1782 8.61822 13.8005 9.29967 12.9561 9.49226C14.9856 11.3737 17.3263 10.2626 18.4521 9.18116C18.541 9.10709 18.6151 9.03302 18.6892 8.97376C19.0892 9.68484 19.3854 10.9885 19.3854 11.744C17.4892 11.6403 17.1485 13.1069 17.1485 13.6403C19.5484 12.6477 19.8151 17.2549 20.4521 17.9956C19.8299 17.9512 18.7484 16.529 17.1485 16.4253C15.2226 16.3068 14.5412 17.329 13.756 17.2846C13.9042 18.6475 15.5634 19.4178 16.63 19.5808C16.0819 20.9733 16.5707 21.9214 17.6966 22.2622C17.6966 20.9881 19.3114 20.5881 21.0446 21.6103C23.1186 22.8251 24.1853 22.9288 25.8593 22.4251C25.5778 23.0177 24.8371 23.0917 23.9038 23.9954C22.615 25.2694 22.5705 26.9286 21.1335 27.536C22.8224 28.336 25.3704 27.2101 25.7408 26.5731C26.4518 27.0175 27.3555 26.7509 27.6074 26.3064C26.4667 23.7732 28.4073 22.2622 29.1629 22.277C29.1629 22.277 29.5036 21.5214 29.1332 21.5511V21.5363ZM20.3187 20.4993C19.4595 20.1437 18.1559 19.9215 17.43 20.9585C17.03 20.2622 17.6225 19.2252 17.9929 18.9141C16.1263 18.9438 15.0745 18.3808 14.793 17.8179C15.4893 17.4327 17.2226 16.8105 18.6595 17.8475C19.6373 18.5734 20.141 18.9141 21.2965 19.2993C21.7113 18.8697 21.5631 19.0623 21.6965 18.9438C20.7484 18.2771 20.3187 13.2106 18.4521 13.0181C18.7188 12.3662 19.6817 12.4255 20.4669 12.6329C20.5261 11.4922 20.0521 9.62559 19.341 8.54415C20.4373 7.96639 21.178 8.58859 21.5483 9.93669C21.9483 11.3737 21.4743 14.9587 22.4076 18.1882L23.0001 17.6401C22.7038 15.7587 24.7778 15.0772 25.2371 14.1291C25.4148 15.3883 25.1482 15.9661 24.7926 16.4253C25.5482 16.5142 25.8741 17.2401 25.7556 17.7586C23.9482 17.492 22.9112 19.3141 23.3112 20.7363C21.9779 21.0326 21.0595 20.8104 20.3336 20.4993H20.3187ZM15.2078 6.36645C16.63 7.06272 17.0892 5.77388 19.741 7.49233C17.9781 8.05528 16.63 10.2182 14.6449 9.67003C16.067 8.95895 15.9189 7.92195 16.7485 7.40345C16.2152 7.32938 15.193 7.09235 15.2078 6.36645Z" fill="black"/>
<path d="M47.6059 14.5738C47.6059 11.7443 47.5022 9.41848 47.4725 8.67777C47.5762 8.7074 47.6948 8.73703 47.8133 8.78147C49.8428 9.49255 50.3021 11.9369 54.5093 9.16664C52.2724 9.4333 52.1539 7.52226 51.1169 7.47781C52.6724 6.58896 52.7761 4.57422 52.7761 4.57422C51.4724 5.62603 48.4503 5.68529 47.8577 6.04083C47.0726 6.51489 46.0948 7.07783 45.4282 7.44819C43.6801 8.3963 44.8949 13.5665 44.7319 15.4627C43.7986 12.648 41.8876 13.0628 40.8802 11.448C40.1247 12.7961 40.9246 15.0627 41.2357 15.6997C40.1543 16.5886 40.4506 18.2182 40.7024 18.6478C41.6357 17.9811 43.0579 18.1441 43.5023 19.27C42.2876 20.0107 40.2432 20.144 38.8506 18.7959L38.347 19.3589C39.3247 20.6625 41.7987 21.1662 43.6208 20.1144C43.6208 20.4107 43.5468 20.7514 43.4283 21.1069C42.4801 21.6106 41.2506 21.8773 39.8432 21.4032C40.0358 22.8254 41.6654 23.8772 43.2209 24.3068C42.6875 24.7216 42.0505 24.8846 41.5765 24.8253C41.8728 25.6549 42.0357 26.7512 41.4135 27.6104C40.6432 27.0919 40.2284 26.5882 39.9321 24.5883C39.6358 22.5884 38.1988 20.5736 37.0878 20.144C37.0285 20.8551 37.0285 20.544 37.147 21.0032C40.1099 23.1809 38.4358 27.0919 41.5172 28.4992C42.6431 27.2104 42.6579 26.7512 42.4801 25.5364C43.5912 25.2401 44.4356 24.3068 44.7319 23.5809C43.6801 24.0846 42.0061 23.1957 41.532 22.5143C43.369 22.455 45.0726 21.0773 46.8059 19.2552C48.3614 17.6256 50.4354 17.8774 50.2724 19.1515C51.3391 18.9885 51.7687 17.5219 51.4131 16.5886C52.9835 16.0849 54.213 14.9294 54.3908 13.1072C52.2724 14.159 49.6058 12.4258 47.6059 14.559V14.5738ZM50.1539 16.0997C50.9835 16.7812 50.7169 17.7589 50.5243 17.9811C49.7836 16.7219 47.4429 17.1663 45.1467 19.7588C44.9838 19.9514 44.7764 20.1736 44.5097 20.4107C44.6875 17.2997 42.1394 17.2552 41.3987 17.5663C41.4876 16.6775 42.0357 16.0553 42.332 15.9664C41.5765 15.0923 41.4135 13.9961 41.3394 13.2109C42.5838 13.7591 44.4356 15.2109 44.7467 17.7145L45.5615 17.1663C45.3245 12.7813 45.3689 12.7961 45.3393 9.81847C45.3393 9.40367 45.3541 8.42593 46.6874 8.52963C46.7466 9.6407 46.9096 12.5739 46.8503 16.6627H47.3244C47.754 15.522 49.2651 14.1739 51.028 14.2924C52.2279 14.3664 52.6427 14.3516 53.339 14.0405C52.7761 15.4034 50.7317 16.0108 50.1984 16.0997H50.1539ZM46.7022 7.74447C47.5466 7.13709 48.0947 6.87043 48.5392 6.60377C49.2799 6.6334 50.5391 6.54452 51.2946 6.15934C50.4947 7.13709 50.4058 7.47781 49.1169 7.62596C50.7909 7.7741 51.4872 9.27034 52.3168 9.50737C49.5169 10.3666 49.2503 7.58151 46.6874 7.74447H46.7022Z" fill="black"/>
<path d="M36.1991 24.218C36.051 24.218 35.9176 24.292 35.8436 24.3957C35.6806 24.3661 35.5176 24.3365 35.3547 24.3217V23.418C35.5176 23.3439 35.6362 23.181 35.6362 23.0032C35.6362 22.7513 35.4288 22.5439 35.1769 22.5439C34.9251 22.5439 34.7177 22.7513 34.7177 23.0032C34.7177 23.181 34.8066 23.3291 34.9547 23.4032V24.2772C34.7918 24.2624 34.6288 24.2476 34.4658 24.2328C34.3918 24.0698 34.2288 23.9661 34.051 23.9661C33.7992 23.9661 33.5918 24.1735 33.5918 24.4254C33.5918 24.6772 33.7992 24.8846 34.051 24.8846C34.214 24.8846 34.3473 24.8105 34.4362 24.6772C34.614 24.692 34.7769 24.7068 34.9399 24.7365V26.0697C34.7769 26.1438 34.6881 26.292 34.6881 26.4697C34.6881 26.7216 34.8955 26.929 35.1473 26.929C35.3991 26.929 35.6065 26.7216 35.6065 26.4697C35.6065 26.292 35.5028 26.129 35.3399 26.0549V24.7957C35.5028 24.8105 35.6362 24.8402 35.7843 24.8698C35.8436 25.0476 36.0065 25.1809 36.2139 25.1809C36.4658 25.1809 36.6732 24.9735 36.6732 24.7216C36.6732 24.4698 36.4658 24.2624 36.2139 24.2624L36.1991 24.218Z" fill="black"/>
<path d="M32.2588 23.9515C32.0811 23.9515 31.9181 24.0552 31.844 24.2181C31.6811 24.2329 31.5181 24.2478 31.37 24.2626V23.3885C31.5033 23.3145 31.5922 23.1663 31.5922 22.9885C31.5922 22.7367 31.3848 22.5293 31.133 22.5293C30.8811 22.5293 30.6737 22.7367 30.6737 22.9885C30.6737 23.1811 30.7922 23.3293 30.9404 23.4033V24.307C30.7774 24.3366 30.6145 24.3515 30.4515 24.3811C30.3626 24.2774 30.2441 24.2033 30.096 24.2033C29.8441 24.2033 29.6367 24.4107 29.6367 24.6625C29.6367 24.9144 29.8441 25.1218 30.096 25.1218C30.2885 25.1218 30.4663 24.9885 30.5256 24.8107C30.6589 24.7811 30.807 24.7663 30.9552 24.7366V25.9958C30.807 26.0699 30.7033 26.2329 30.7033 26.4106C30.7033 26.6625 30.9107 26.8699 31.1626 26.8699C31.4144 26.8699 31.6218 26.6625 31.6218 26.4106C31.6218 26.2329 31.5181 26.0847 31.37 26.0106V24.6774C31.5181 24.6626 31.6811 24.6477 31.8589 24.6181C31.9329 24.7514 32.0811 24.8255 32.244 24.8255C32.4959 24.8255 32.7033 24.6181 32.7033 24.3663C32.7033 24.1144 32.4959 23.907 32.244 23.907L32.2588 23.9515Z" fill="black"/>
<path d="M38.2884 27.8324C38.0069 26.0102 37.3551 20.8845 37.281 19.166L36.4959 19.1956C36.4959 19.4919 36.5403 19.8771 36.5848 20.3215C35.6515 20.0549 34.4219 19.8475 33.1627 19.8475C31.9035 19.8475 30.6887 20.0401 29.7406 20.3215C29.785 19.8771 29.8147 19.4919 29.8295 19.1956L29.0443 19.166C28.9702 20.8845 28.3036 25.9954 28.0369 27.8324C27.5777 28.0101 27.2666 28.4842 27.2666 29.3138C27.2666 29.3138 31.5183 29.373 33.1627 29.373C34.8071 29.373 39.0588 29.3138 39.0588 29.3138C39.0588 28.4842 38.7477 28.0101 38.2884 27.8324ZM33.1479 27.7879C32.4812 29.0768 31.222 29.0323 30.1258 28.3212C29.6813 28.0249 29.2369 27.8324 28.8221 27.7731C29.0147 26.4991 29.3258 24.0992 29.548 22.0844C30.9702 21.4474 32.7182 21.2845 33.1479 22.9288C33.5775 21.2993 35.3256 21.4474 36.7477 22.0844C36.9699 24.114 37.281 26.5139 37.4736 27.7731C37.0588 27.8324 36.6144 28.0249 36.17 28.3212C35.0737 29.0471 33.8145 29.0768 33.1479 27.7879Z" fill="black"/>
<path d="M24.1256 29.8773C26.5848 30.7513 29.3402 31.3143 32.2734 29.8477C31.8883 31.1513 31.3253 31.9365 30.5994 32.4994C31.0142 33.5216 31.6513 34.7956 31.9179 35.8326C32.7031 36.3511 32.5549 37.2252 32.4216 37.8177C32.3031 38.3659 30.5106 39.0029 29.918 38.8251C29.3699 38.6621 29.355 38.3955 29.0884 38.4251C28.3032 38.4992 25.8885 40.8843 23.5479 38.6029V33.6994C24.4515 33.1957 25.2219 32.7513 25.6663 32.0994C25.1478 31.7587 24.4219 30.8402 24.1256 29.8773ZM26.7329 32.055C26.1107 33.0179 25.5181 33.5068 24.3626 34.1586V38.1288C25.8885 39.4769 27.8884 38.3066 28.6736 37.8325C28.4366 37.4474 28.3477 37.1807 28.244 36.7363C26.3033 36.9437 25.5774 35.9659 25.1774 34.5142C25.1774 34.5142 25.533 34.2771 25.8737 34.1142C26.5551 36.3215 27.7847 36.0104 28.7477 35.9659C29.3847 35.3882 30.2587 35.1956 31.0439 35.2549C30.8365 34.3808 30.2587 33.2549 29.6661 32.292C30.1995 31.9513 30.8217 31.5661 31.2513 30.8847C28.6588 31.818 27.5329 31.492 25.3404 30.8698C25.7404 31.4328 26.2737 31.8328 26.7329 32.0698V32.055ZM31.192 35.9808C30.7476 35.8326 29.3699 36.2178 29.2217 36.603C29.1032 36.8992 29.3699 37.5807 29.8884 37.8918C30.1995 38.0844 31.4439 37.6992 31.6513 37.4029C31.829 37.1511 31.6364 36.1289 31.192 35.9808Z" fill="black"/>
<path d="M42.895 33.1365C42.895 31.6403 41.8136 30.2773 40.1396 30.2773C38.5989 30.2773 36.673 31.0329 36.5545 32.381C34.3028 33.6994 33.2213 34.8994 33.562 36.0253C32.7917 36.8401 33.3843 38.3659 35.6509 37.403C35.0435 37.9956 34.8361 38.7215 34.8361 39.3437H42.4358C41.6506 35.166 42.9098 35.9068 42.9098 33.1513L42.895 33.1365ZM40.6136 32.6921C40.2285 32.6032 38.5396 32.4995 37.9915 33.7587C37.6656 33.7587 37.3249 33.6402 37.1175 33.4476C36.8953 33.7291 36.5545 33.9217 36.0953 34.055C36.4953 34.8846 37.3397 34.7364 37.8285 34.3513C37.8137 34.4698 37.7989 34.5735 37.7989 34.7068C37.7989 36.7512 39.9766 37.2549 41.3099 36.4993C41.0877 37.166 41.1914 37.9956 41.2803 38.5585H36.0212C36.1101 37.9956 36.8064 37.3586 37.3989 36.9438L36.9249 36.203C36.3471 36.4549 35.8138 36.6771 35.2064 36.8401C33.7546 37.2252 33.8435 36.1734 35.3398 35.7586V35.3438H34.3768C34.6139 34.3068 36.6138 33.0032 37.5026 32.6921C37.4582 31.581 38.9248 31.2106 40.0951 31.181C41.5617 31.1366 41.9025 32.7069 41.9025 33.1958C41.9025 33.8476 41.7395 35.2697 40.9247 35.7142C39.7544 36.366 38.747 35.4623 38.747 34.6624C38.747 33.7883 39.3544 33.2698 40.421 33.3883C41.4729 33.5069 41.3988 32.9143 40.5988 32.7069L40.6136 32.6921Z" fill="black"/>
<path d="M40.4653 47.5355V45.6985H39.6357C39.5912 43.7875 39.132 42.4098 38.2431 41.4913L37.9913 41.2246L37.7394 41.4913C36.8506 42.4098 36.3913 43.7875 36.3469 45.6985H35.5469V47.4318C34.5247 47.7577 33.8137 48.291 32.9544 48.9428L32.9248 48.9725L33.3692 49.5502L33.3989 49.5206C34.7321 48.4984 35.6062 47.8318 37.9913 47.8318C40.3764 47.8318 41.443 48.8688 42.1541 49.9798L42.7615 49.5947C42.2726 48.8095 41.606 48.0095 40.4653 47.5355ZM37.9913 42.2912C38.569 43.0616 38.8801 44.1875 38.9246 45.6985H37.0728C37.1172 44.1875 37.4135 43.0764 37.9913 42.2912ZM36.2728 47.2392V46.4096H39.7542V47.2985C39.2505 47.1651 38.6727 47.0911 38.0061 47.0911C37.3395 47.0911 36.7765 47.1355 36.2876 47.2392H36.2728Z" fill="black"/>
<path d="M39.8875 50.8688C40.0504 50.2614 39.9023 49.6836 39.606 49.3281C39.2949 48.9726 38.7468 48.7355 38.1246 48.8244L38.8208 49.6096L37.6061 50.6317L37.0728 50.0095C37.0728 50.0095 37.2653 49.8318 37.5616 49.5948C37.132 49.1059 36.5394 48.6911 35.695 48.8837C35.3839 49.6985 35.7247 50.3355 36.1395 50.8243C36.4357 50.5725 36.6283 50.4095 36.6283 50.4095L37.1616 51.0169L35.6802 52.2613L36.1543 52.7946L37.6061 51.5058L38.0801 52.0539C38.0801 52.0539 37.769 52.5132 38.2135 53.0317C38.5542 52.7354 39.1171 52.2465 39.4579 51.9502C39.0134 51.4465 38.5246 51.6836 38.5246 51.6836L38.0357 51.1206L39.2208 50.0688L39.9171 50.8688H39.8875Z" fill="black"/>
<path d="M30.407 42.2617C30.2144 41.1803 29.0144 41.0618 28.4663 41.5507C27.933 41.0618 26.733 41.1951 26.5404 42.2617C24.6146 41.9803 24.822 43.7876 25.0738 44.2913C25.296 44.7357 25.8145 45.9505 26.1701 46.706C26.1108 46.7208 26.0516 46.7357 26.0071 46.7505C25.9182 47.1801 25.9034 47.743 25.9775 48.1875C26.0664 48.2171 26.1553 48.2467 26.2293 48.2763C26.0368 48.8689 25.6664 49.8022 25.4738 50.217C25.7405 50.38 26.0219 50.5133 26.4071 50.6022C26.4071 50.6022 26.333 50.9429 26.2293 51.2836C26.7627 51.4614 27.7848 51.5799 28.4663 51.5799C29.1477 51.5799 30.1699 51.4614 30.7032 51.2836C30.5995 50.9429 30.5255 50.6022 30.5255 50.6022C30.9255 50.5133 31.2069 50.38 31.4588 50.217C31.2662 49.7874 30.8958 48.8541 30.7032 48.2763C30.7921 48.2467 30.881 48.2171 30.9699 48.1875C31.044 47.743 31.0292 47.1653 30.9403 46.7505C30.8958 46.7505 30.8366 46.7208 30.7773 46.706C31.1329 45.9505 31.6514 44.7357 31.8736 44.2913C32.1106 43.7876 32.3328 41.9803 30.407 42.2617ZM28.4811 42.3803C28.5552 41.8766 30.007 41.7729 29.7255 42.8988C29.444 44.0395 29.1033 45.3579 28.8515 46.4986C28.7329 46.4986 28.5996 46.4986 28.4811 46.4986C28.3626 46.4986 28.2293 46.4986 28.1107 46.4986C27.8441 45.3431 27.5034 44.0395 27.2367 42.8988C26.9701 41.7729 28.407 41.8766 28.4811 42.3803ZM30.3773 47.2245C30.407 47.3875 30.4218 47.6097 30.3773 47.7875C29.9033 47.9208 29.0885 47.9949 28.4663 47.9949C27.8441 47.9949 27.0293 47.9208 26.5553 47.7875C26.5256 47.6245 26.5256 47.4023 26.5553 47.2245C26.8664 47.106 28.0811 47.0468 28.4515 47.0468C28.8218 47.0468 30.0366 47.106 30.3477 47.2245H30.3773ZM25.7553 43.995C25.3257 42.9728 26.3627 42.7062 26.5849 43.2987C26.896 44.158 27.2812 45.5505 27.5922 46.5134C27.3256 46.5134 27.0589 46.5579 26.8219 46.5875C26.6886 46.232 26.2293 45.1061 25.7701 43.995H25.7553ZM30.7181 49.9059C30.4662 49.9948 30.1403 50.1133 29.8292 50.1429C29.8885 50.3948 29.9477 50.6466 29.9922 50.8244C29.5774 50.9133 28.9255 50.9577 28.4811 50.9577C28.0367 50.9577 27.3848 50.9133 26.9701 50.8244C27.0145 50.6466 27.0738 50.3948 27.133 50.1429C26.8219 50.1133 26.496 49.9948 26.2442 49.9059C26.3775 49.4615 26.5701 49.017 26.7478 48.4097C27.3108 48.543 27.8589 48.5874 28.4811 48.5874C29.1033 48.5874 29.6514 48.543 30.2144 48.4097C30.3773 49.0319 30.5847 49.4615 30.7181 49.9059ZM31.2217 43.995C30.7625 45.0913 30.3033 46.232 30.1699 46.5875C29.9329 46.5579 29.6662 46.5283 29.3848 46.5134C29.6959 45.5505 30.081 44.158 30.3921 43.2987C30.6144 42.7062 31.6514 42.958 31.2069 43.995H31.2217Z" fill="black"/>
<path d="M26.8809 33.2549C27.4438 33.403 27.7401 33.2845 28.2734 33.2549C28.4956 33.2549 28.94 33.3882 28.8363 33.966C28.7771 34.2474 28.8808 34.4104 28.9697 34.6178C28.4956 34.5585 28.0512 34.7659 27.6808 34.5882C27.1771 34.3511 27.266 33.6549 26.8957 33.2697L26.8809 33.2549Z" fill="black"/>
<path d="M58.0503 27.24C57.9021 29.0029 56.5392 31.6695 54.9541 33.0176H55.9763C57.0577 31.951 58.8799 30.0548 59.1465 26.5586C59.1465 26.5586 58.4355 26.9882 58.0503 27.2252V27.24Z" fill="black"/>
<path d="M52.11 23.477C52.2582 23.2696 52.2137 22.9141 52.7174 22.7808C53.1767 22.6622 53.2063 23.003 53.3989 23.0474C53.6655 23.1067 53.5915 23.077 53.4433 23.2993C53.2952 23.5215 53.3396 23.8622 52.8952 23.9066C52.3915 23.9511 52.4508 23.6992 52.1989 23.6992C51.9174 23.6992 51.9471 23.6252 52.1248 23.4918L52.11 23.477Z" fill="black"/>
<path d="M69.279 24.9138C69.042 24.9731 68.5087 25.136 68.1531 25.1805C68.8198 24.5138 69.2346 23.7138 69.2346 23.0324C68.9086 23.1361 68.3309 23.3583 67.7976 23.4768C68.8494 22.5731 69.4271 21.5361 69.1753 20.1584C68.8494 20.3214 68.3901 20.588 67.9457 20.7806C68.8642 19.3585 68.8494 18.1141 68.479 17.3733C68.0642 17.7585 67.5606 18.2029 67.0421 18.5289C67.3828 16.8845 67.368 15.8327 66.6717 15.0919C65.9606 16.4104 65.368 17.3882 64.3755 18.5585C64.4496 17.477 64.331 16.1289 63.62 15.4179C63.62 15.4179 63.4126 16.9289 62.8941 17.4178C62.7607 15.9364 62.3015 15.1216 61.6348 14.3364C61.6348 14.3364 61.5904 15.8771 61.1608 16.84C60.8052 15.5512 60.1386 14.5438 59.2942 13.5957C59.3535 16.44 58.5683 21.8176 56.2721 25.4323C56.0054 27.5804 55.7684 30.7951 52.287 32.6913C51.7834 32.3357 50.9093 31.8913 49.6649 31.9506C49.339 30.3358 51.4574 28.8692 53.2796 27.6989C55.1166 26.5137 55.9165 25.4916 55.8721 23.9064C55.8277 22.1732 54.6573 21.4621 53.4426 21.4176C51.7241 21.3436 50.3316 22.8991 50.0057 23.5509C49.502 23.7879 48.0354 24.2472 47.4428 24.3953C46.7761 24.5731 46.0206 24.8545 45.5466 25.2397C45.828 25.4175 46.628 25.4767 46.9391 25.4323C47.5169 25.3434 49.3686 25.0027 51.1464 24.7805C51.7982 25.136 52.8352 25.7138 51.7389 26.4841C50.2279 27.447 49.5909 27.6989 47.4576 28.81C44.0948 30.5728 45.191 35.0023 46.0058 35.3282C46.0058 36.8245 47.3391 39.5207 48.2428 40.4688C48.6576 42.3502 48.1094 45.1501 47.5465 46.3056C47.0724 45.1649 46.2725 42.5131 45.7391 40.9725C46.2873 38.054 45.3984 36.78 44.791 36.2763C44.1836 35.7727 43.2059 35.906 42.5689 36.9282C43.5466 36.8245 43.8577 38.0689 43.8429 39.3429C43.8133 40.8836 43.4281 42.128 42.3467 42.128C42.4356 43.4464 43.8577 43.8168 44.5688 43.1798C44.6873 43.4761 45.2503 45.2093 45.7984 46.75C46.1095 47.6685 46.4354 48.5129 46.628 48.9425C46.8502 49.4314 48.4946 49.5055 48.6872 48.9425C48.939 48.187 49.1464 47.6241 49.5612 46.75C49.8723 46.0834 50.3019 45.2242 50.9686 43.9798C51.413 44.7353 51.9908 45.9352 52.3315 46.75C52.4944 47.1352 52.5981 47.4315 52.613 47.5648C52.7463 48.8388 52.6722 53.2831 52.3315 55.9645C48.6576 54.9571 47.6206 56.7645 47.9465 58.0977C48.4798 57.5052 49.1612 57.5792 49.5908 57.8903C49.4871 58.8681 49.7538 59.5792 50.7464 59.8755C51.7982 57.0904 55.5906 57.7126 55.9462 57.9348C55.961 57.3867 56.4795 56.0386 54.524 55.7571C54.5981 53.3424 54.8499 50.3943 54.9388 49.7869C55.0277 49.1796 55.1018 48.7944 54.8055 47.8166C54.7166 47.5204 54.6129 47.1648 54.5092 46.75C54.2573 45.7723 53.9907 44.4983 53.9759 43.1205C54.3166 43.4613 55.1166 43.7279 55.6795 43.5946C56.1091 45.4167 56.7165 44.8834 57.0424 45.6538C57.2054 46.0537 57.2498 46.4093 57.2943 46.75C57.3387 47.0611 57.3832 47.3426 57.5609 47.5796C58.8646 47.6241 59.9756 47.2981 60.7608 46.75C60.9978 46.5722 61.22 46.3945 61.3978 46.1723C61.0719 44.2316 60.5386 43.2835 59.5164 42.1132C59.2497 40.528 58.509 39.0762 57.4869 37.7874C58.7609 37.3578 60.0645 36.3208 60.746 35.6097C61.3682 35.5653 62.0645 35.0468 62.1237 34.0542C62.4793 34.0098 62.7904 33.9949 63.057 33.9357C63.0274 33.6542 62.9533 33.2542 62.9089 33.0024C63.3829 33.0024 63.8422 33.0024 64.2718 32.9431C64.1385 32.5728 63.9755 32.1876 63.8422 31.9209C64.3162 31.9209 64.894 31.8913 65.368 31.8617C65.1162 31.3876 64.9236 30.9876 64.7755 30.5728C65.3236 30.5136 66.1532 30.3803 66.8495 30.2173C66.6273 29.9803 66.3754 29.7432 66.0051 29.3877C67.7976 28.8544 68.5679 27.61 68.6568 27.0767C68.3901 27.0767 67.842 27.1952 67.5309 27.1656C68.5235 26.573 69.2049 25.773 69.3086 24.899L69.279 24.9138ZM59.9756 16.7511C60.4201 17.4919 60.7608 18.8103 60.7608 19.9214C61.3237 19.3585 61.6941 18.4548 61.8719 17.7881C62.1237 18.2918 62.0941 19.6103 62.0348 20.2029C62.657 19.6696 63.057 18.9437 63.4422 18.1881C63.5163 18.7363 63.5311 19.2103 63.4422 19.7288C62.0941 21.1658 59.8719 23.0768 57.5461 25.0175C58.8053 22.4102 59.6053 20.2325 59.9756 16.7363V16.7511ZM48.702 46.7945C48.5242 47.2685 48.3761 47.7574 48.2576 48.3055C48.1539 48.7944 47.0872 48.6759 46.9391 48.3055C46.8206 48.0092 46.6132 47.4611 46.3465 46.7945C45.7391 45.1945 44.8947 42.9131 44.6873 41.9502C44.2577 42.6317 43.8133 43.002 43.3244 42.5724C45.0725 41.7872 44.4503 37.0763 43.7837 36.8541C44.6133 36.1134 45.5614 38.9577 45.0132 41.0762C45.5317 42.5576 46.5687 45.5649 46.9687 46.8093C47.0576 47.0759 47.1169 47.2537 47.1317 47.3278C47.2502 47.7129 47.7391 47.6685 47.8428 47.3278C47.8872 47.1944 47.9317 47.0315 48.0057 46.8093C48.4057 45.4908 49.2501 42.6909 49.102 40.928C49.9316 41.0762 50.1686 41.8317 50.4501 42.8094C49.7686 44.439 49.1316 45.5649 48.6724 46.8093L48.702 46.7945ZM67.0421 27.9211C66.6124 28.3803 65.2643 28.9433 63.6496 29.0173C63.9755 29.3581 64.494 29.6099 64.8495 29.7877C64.3903 29.8914 63.7533 29.9062 63.1755 29.9358C63.4422 30.3951 63.8422 30.9728 63.9755 31.2247C63.5163 31.2247 63.1015 31.195 62.5681 31.1654C62.8348 31.6691 62.8941 31.8765 63.1311 32.2913C62.7755 32.2913 62.1089 32.2913 61.7385 32.2469C61.8571 32.5876 62.0645 33.032 62.1682 33.2987C61.9608 33.2987 61.62 33.2987 61.4126 33.3135C59.8571 35.4764 57.6646 37.7429 53.5611 37.5207C53.6796 37.8763 53.7685 38.2466 53.7981 38.2466C54.4055 38.2763 55.6351 38.1726 56.5387 38.0244C57.1609 38.7207 58.3016 40.3799 58.8942 42.9131C59.3535 43.1946 60.0645 44.439 60.4201 46.0241C59.6794 46.4537 59.0275 46.6463 58.0794 46.75C57.7239 44.7353 56.6869 44.6612 56.1832 42.9872C55.4721 43.0761 54.4647 42.528 54.1833 41.5502H53.2648C53.087 43.4909 53.5166 45.2834 53.8574 46.7945C54.0203 47.5204 54.1685 48.1722 54.2277 48.7499C54.3462 49.9351 53.8722 54.4979 53.8425 56.3793C54.7166 56.3497 55.3684 56.5719 55.3388 57.283C53.9759 56.8533 51.6056 57.12 50.4945 58.9718C50.2279 58.8236 50.0501 58.0533 50.4945 57.8311C49.9612 57.2533 49.5168 56.8533 48.539 57.1348C48.9538 56.4534 49.9168 56.0089 52.8204 56.7496C53.1166 55.7571 53.3833 49.387 53.324 48.0092C53.324 47.787 53.1907 47.3574 52.9685 46.7945C52.2722 45.0168 50.7315 41.9798 50.3612 39.9206C49.8575 39.9206 49.1316 40.0243 48.8798 39.7725C48.2576 39.1503 46.8798 37.1356 46.6132 35.1653C46.1391 34.3801 45.354 31.358 47.7094 29.6692C49.339 28.484 53.087 27.0619 53.0722 25.6841C53.0722 24.8694 51.6648 24.2472 51.1908 23.9064C50.7167 23.6398 50.8945 23.4027 51.2945 23.0028C53.5018 20.8547 56.1091 22.9583 54.5833 25.5804C53.4574 27.5063 47.7539 29.1803 49.0724 32.795C50.3168 32.8987 50.9241 33.3431 51.3834 33.9653C52.5093 33.5653 56.9091 31.6247 57.3239 26.0545C58.4201 25.3582 59.5608 24.6175 60.6275 23.7287C60.8349 25.136 60.5978 34.1431 52.4648 36.2171C52.687 36.9874 54.4351 37.2096 55.4573 35.8171C56.4647 36.0541 57.6646 35.2245 57.6943 34.4542C58.5831 34.4542 59.546 33.4616 59.3979 32.5431C60.4941 32.1728 61.0126 30.721 60.5386 29.6247C61.4867 29.1951 61.8126 28.0692 61.383 26.973C62.1385 26.4545 62.3756 25.136 61.7385 24.3064C62.1237 23.5953 62.0348 23.0176 61.7385 22.5435C63.2052 21.1806 65.0866 19.4473 66.2569 17.3289C66.3458 18.7807 65.5754 19.9806 64.7014 21.2991C66.2569 20.3066 66.6124 20.0695 67.5754 19.2992C67.2939 20.9584 65.3829 22.4843 64.731 23.2398C65.6347 22.8694 67.0272 22.2176 68.0642 21.6547C67.1606 23.4768 65.6051 24.5138 64.6866 25.0916C65.9606 24.8545 66.8791 24.662 67.7087 24.3805C66.968 25.2101 65.5754 26.1582 63.9903 26.6323C65.2643 26.6026 66.2717 26.4545 67.3828 26.1286C66.568 26.973 65.3532 27.7878 63.9459 27.9655C65.3829 27.9655 65.6495 28.0692 66.9976 27.9211H67.0421Z" fill="black"/>
<path d="M59.3393 44.6768C59.28 44.4694 59.0133 44.2027 58.7022 43.7139C58.3319 43.8028 57.9467 43.8324 57.4727 43.8028C57.7689 44.4546 57.7689 44.8249 57.7689 44.7953C58.2134 44.8842 58.7615 44.8249 59.3541 44.6768H59.3393Z" fill="black"/>
<path d="M57.0131 60.1874C56.5242 60.3355 55.9316 60.4244 55.028 60.4244H53.9169C50.0948 60.3503 46.169 59.2096 43.7691 56.7505C47.0875 53.3876 43.1914 50.6322 41.0729 53.4765C40.4063 54.3654 39.8878 55.0024 39.4286 55.8616C39.0582 56.5579 39.3397 57.2542 40.1693 58.3208C40.6285 58.9134 41.7544 59.817 42.6729 60.4244H23.5921C24.5106 59.8318 25.6365 58.9134 26.0957 58.3208C26.9253 57.2542 27.2068 56.5431 26.8364 55.8616C26.3772 55.0024 25.8587 54.3654 25.1921 53.4765C23.0736 50.6322 19.1775 53.3876 22.4959 56.7505C20.0959 59.2096 16.1702 60.3503 12.3481 60.4244H11.2963C10.4074 60.4244 9.80004 60.3355 9.31116 60.1874C8.52601 59.9948 8.34824 60.3355 8.76304 61.6984C9.05932 62.6169 9.29635 64.0983 9.38524 65.1057H56.939C57.0427 64.0835 57.2797 62.6021 57.5612 61.6984C57.9908 60.3355 57.8131 59.9948 57.0131 60.1874ZM42.1396 53.595C42.7618 52.7654 43.6654 52.9728 44.0506 53.6839C44.4506 54.4246 43.8728 55.3431 43.0877 56.0542C42.0062 54.8839 41.8877 53.9358 42.1544 53.595H42.1396ZM40.5544 57.506C40.1693 56.9727 40.0359 56.6468 40.2433 56.1283C40.4359 55.6246 40.8359 55.1653 41.2655 54.5283C41.9322 57.1208 45.8431 59.5948 48.7319 60.4244H44.1247C42.9395 59.7726 41.4285 58.7208 40.5544 57.506ZM22.1996 53.6839C22.5847 52.9877 23.4884 52.7654 24.1106 53.595C24.3773 53.9506 24.2588 54.8839 23.1773 56.0542C22.3922 55.3431 21.7996 54.4246 22.2144 53.6839H22.1996ZM24.9995 54.5283C25.4291 55.1653 25.8291 55.6098 26.0217 56.1283C26.2291 56.6468 26.0957 56.9579 25.7105 57.506C24.8365 58.7356 23.3255 59.7874 22.1403 60.4244H17.5331C20.4219 59.6096 24.3328 57.1208 24.9995 54.5283ZM56.1094 64.365H10.2C9.99262 62.8984 9.71115 61.9651 9.45931 61.1799H56.8353C56.5835 61.9651 56.302 62.9132 56.0946 64.365H56.1094Z" fill="black"/>
<path d="M16.4225 63.328C16.4225 63.328 16.4373 63.328 16.4521 63.3428L16.5855 63.6835C16.5855 63.6835 16.5855 63.7428 16.5558 63.7428C16.5262 63.7428 16.5114 63.7428 16.5114 63.7724C16.5114 63.7872 16.541 63.7872 16.5855 63.802C16.8077 63.802 17.0003 63.802 17.104 63.802C17.2077 63.802 17.2225 63.802 17.2225 63.7724C17.2225 63.7428 17.2225 63.7428 17.1928 63.7428C17.1632 63.7428 17.1188 63.7428 17.0743 63.7428C17.0151 63.7428 16.941 63.6983 16.8373 63.4465C16.6595 63.0317 16.2299 61.9206 16.1558 61.7725C16.1262 61.6984 16.1114 61.6836 16.0818 61.6836C16.0521 61.6836 16.0373 61.7132 16.0077 61.7873L15.3262 63.4909C15.267 63.6243 15.2225 63.728 15.0892 63.7428C15.0744 63.7428 15.03 63.7428 15.0003 63.7428C14.9855 63.7428 14.9707 63.7428 14.9707 63.7724C14.9707 63.802 14.9855 63.802 15.0151 63.802C15.1485 63.802 15.3114 63.802 15.3411 63.802C15.4299 63.802 15.5485 63.802 15.6373 63.802C15.667 63.802 15.6818 63.802 15.6818 63.7724C15.6818 63.7576 15.6818 63.7428 15.6373 63.7428H15.5929C15.504 63.7428 15.4892 63.7131 15.4892 63.6539C15.4892 63.6243 15.4892 63.5502 15.5336 63.4761L15.5929 63.328C15.5929 63.328 15.5929 63.2983 15.6225 63.2983H16.4077L16.4225 63.328ZM15.6818 63.1946C15.6818 63.1946 15.6818 63.1946 15.6818 63.1798L16.0225 62.2762C16.0225 62.2762 16.0225 62.2613 16.0373 62.2613C16.0373 62.2613 16.0373 62.2613 16.0373 62.2762L16.3781 63.1946H15.6966H15.6818Z" fill="black"/>
<path d="M17.7855 62.9273C17.7855 63.3273 17.8892 63.5199 18.0226 63.6532C18.2152 63.831 18.4818 63.8458 18.63 63.8458C18.8077 63.8458 19.0003 63.8162 19.1929 63.6532C19.4151 63.4606 19.4447 63.1347 19.4447 62.8384V62.5422C19.4447 62.1274 19.4447 62.0533 19.4447 61.9644C19.4447 61.8755 19.4744 61.8163 19.5484 61.8163C19.5781 61.8163 19.5929 61.8163 19.6225 61.8163C19.6521 61.8163 19.667 61.8163 19.667 61.7866C19.667 61.7718 19.6521 61.757 19.6077 61.757C19.504 61.757 19.3262 61.757 19.2966 61.757C19.2966 61.757 19.1188 61.757 18.9855 61.757C18.9411 61.757 18.9262 61.757 18.9262 61.7866C18.9262 61.8014 18.9411 61.8163 18.9707 61.8163C19.0003 61.8163 19.0448 61.8163 19.0744 61.8163C19.1633 61.8311 19.1781 61.8755 19.1929 61.9644C19.1929 62.0533 19.1929 62.1274 19.1929 62.5422V62.8829C19.1929 63.1644 19.1929 63.4162 19.0299 63.5495C18.9262 63.6532 18.7781 63.6977 18.6596 63.6977C18.5707 63.6977 18.4374 63.6977 18.3189 63.5792C18.1855 63.4755 18.1115 63.3125 18.1115 62.9125V62.5273C18.1115 62.1125 18.1115 62.0385 18.1115 61.9496C18.1115 61.8607 18.1411 61.8014 18.2152 61.8014C18.2448 61.8014 18.2596 61.8014 18.2892 61.8014C18.3189 61.8014 18.3337 61.8014 18.3337 61.7718C18.3337 61.757 18.3189 61.7422 18.2744 61.7422C18.1855 61.7422 18.0078 61.7422 17.9485 61.7422C17.8596 61.7422 17.6967 61.7422 17.5485 61.7422C17.5041 61.7422 17.4893 61.7422 17.4893 61.7718C17.4893 61.7866 17.5041 61.8014 17.5337 61.8014C17.5781 61.8014 17.6226 61.8014 17.6374 61.8014C17.7263 61.8163 17.7411 61.8607 17.7559 61.9496C17.7559 62.0385 17.7559 62.1125 17.7559 62.5273V62.9273H17.7855Z" fill="black"/>
<path d="M20.5997 63.0014C20.5997 63.2532 20.5997 63.4755 20.5849 63.5792C20.5849 63.6532 20.5552 63.7125 20.5108 63.7273C20.4812 63.7273 20.4515 63.7273 20.4071 63.7273C20.3775 63.7273 20.3626 63.7273 20.3626 63.7569C20.3626 63.7717 20.3774 63.7866 20.4219 63.7866C20.5256 63.7866 20.7034 63.7866 20.7626 63.7866C20.8959 63.7866 21.1478 63.8162 21.3404 63.8162C21.8441 63.8162 22.1255 63.6236 22.2589 63.4903C22.407 63.3273 22.5551 63.0755 22.5551 62.7347C22.5551 62.4236 22.4218 62.1866 22.2885 62.0533C21.9922 61.7422 21.533 61.7422 21.1922 61.7422C21.0293 61.7422 20.8515 61.7422 20.7774 61.7422C20.7034 61.7422 20.5256 61.7422 20.3923 61.7422C20.3478 61.7422 20.333 61.7422 20.333 61.7718C20.333 61.7866 20.3478 61.8014 20.3775 61.8014C20.4219 61.8014 20.4663 61.8014 20.4812 61.8014C20.57 61.8163 20.5849 61.8607 20.5997 61.9496C20.5997 62.0385 20.5997 62.1125 20.5997 62.5273V63.0014ZM20.9404 62.4829C20.9404 62.2755 20.9404 62.0237 20.9404 61.9348C20.9404 61.9051 20.9404 61.8903 20.97 61.8755C20.9997 61.8755 21.0885 61.8607 21.1478 61.8607C21.3552 61.8607 21.6663 61.8903 21.9181 62.1422C22.0366 62.2607 22.1848 62.4681 22.1848 62.8236C22.1848 63.1051 22.1255 63.3569 21.9626 63.4903C21.7996 63.6384 21.607 63.6977 21.3404 63.6977C21.1182 63.6977 21.0145 63.6384 20.9848 63.594C20.9552 63.5643 20.9552 63.4458 20.9552 63.3866C20.9552 63.3421 20.9552 63.1347 20.9552 62.8384V62.4977L20.9404 62.4829Z" fill="black"/>
<path d="M24.3479 63.328C24.3479 63.328 24.3628 63.328 24.3776 63.3428L24.5109 63.6835C24.5109 63.6835 24.5109 63.7428 24.4813 63.7428C24.4516 63.7428 24.4368 63.7428 24.4368 63.7724C24.4368 63.7872 24.4665 63.7872 24.5257 63.802C24.7479 63.802 24.9405 63.802 25.0442 63.802C25.1479 63.802 25.1627 63.802 25.1627 63.7724C25.1627 63.7428 25.1627 63.7428 25.1331 63.7428C25.1035 63.7428 25.059 63.7428 25.0146 63.7428C24.9553 63.7428 24.8813 63.6983 24.7776 63.4465C24.5998 63.0317 24.1702 61.9206 24.1109 61.7725C24.0813 61.6984 24.0665 61.6836 24.0369 61.6836C24.0072 61.6836 23.9924 61.7132 23.9628 61.7873L23.2813 63.4909C23.2221 63.6243 23.1776 63.728 23.0443 63.7428C23.0147 63.7428 22.985 63.7428 22.9554 63.7428C22.9406 63.7428 22.9258 63.7428 22.9258 63.7724C22.9258 63.802 22.9406 63.802 22.9702 63.802C23.1184 63.802 23.2665 63.802 23.2961 63.802C23.385 63.802 23.5035 63.802 23.5924 63.802C23.6221 63.802 23.6369 63.802 23.6369 63.7724C23.6369 63.7576 23.6369 63.7428 23.5924 63.7428H23.548C23.4591 63.7428 23.4443 63.7131 23.4443 63.6539C23.4443 63.6243 23.4443 63.5502 23.4887 63.4761L23.548 63.328C23.548 63.328 23.548 63.2983 23.5776 63.2983H24.3628L24.3479 63.328ZM23.6072 63.1946C23.6072 63.1946 23.6072 63.1946 23.6072 63.1798L23.948 62.2762C23.948 62.2762 23.948 62.2613 23.9628 62.2613C23.9776 62.2613 23.9628 62.2613 23.9628 62.2762L24.3035 63.1946H23.6221H23.6072Z" fill="black"/>
<path d="M26.9997 62.0237C27.0886 61.9051 27.133 61.8311 27.1923 61.8163C27.2367 61.8163 27.2663 61.8014 27.296 61.8014C27.3256 61.8014 27.3404 61.8014 27.3404 61.7718C27.3404 61.7422 27.3256 61.7422 27.296 61.7422C27.1923 61.7422 27.0886 61.7422 27.0293 61.7422C26.9849 61.7422 26.8664 61.7422 26.7627 61.7422C26.7182 61.7422 26.7034 61.7422 26.7034 61.7718C26.7034 61.8014 26.7182 61.8014 26.733 61.8014C26.7478 61.8014 26.7923 61.8014 26.8219 61.8014C26.8515 61.8014 26.8664 61.8311 26.8664 61.8607C26.8664 61.8755 26.8664 61.92 26.8367 61.9644C26.7923 62.0385 26.5404 62.4236 26.4664 62.5422C26.3627 62.3644 26.2442 62.157 26.1256 61.9496C26.1108 61.92 26.096 61.8903 26.096 61.8755C26.096 61.8607 26.096 61.8311 26.1256 61.8311C26.1553 61.8311 26.1849 61.8311 26.1997 61.8311C26.2293 61.8311 26.2442 61.8311 26.2442 61.8014C26.2442 61.7866 26.2293 61.7718 26.1849 61.7718C26.0812 61.7718 25.9331 61.7718 25.8886 61.7718C25.7553 61.7718 25.5331 61.7718 25.4738 61.7718C25.4294 61.7718 25.4146 61.7718 25.4146 61.7866C25.4146 61.8163 25.4146 61.8163 25.4442 61.8163C25.4738 61.8163 25.5183 61.8163 25.5627 61.8311C25.6664 61.8607 25.7257 61.92 25.7849 62.0385L26.259 62.8088L25.7405 63.5495C25.6516 63.6829 25.5923 63.7273 25.5183 63.7569C25.4738 63.7569 25.4294 63.7569 25.4146 63.7569C25.3849 63.7569 25.3701 63.7569 25.3701 63.7866C25.3701 63.7866 25.3701 63.8014 25.4146 63.8014H25.459C25.459 63.8014 25.6368 63.8014 25.6812 63.8014C25.7553 63.8014 25.9182 63.8014 25.9331 63.8014H25.9775C25.9775 63.8014 26.0368 63.8014 26.0368 63.7866C26.0368 63.7569 26.0219 63.7569 26.0071 63.7569C25.9775 63.7569 25.9627 63.7569 25.9479 63.7569C25.9182 63.7569 25.9034 63.7421 25.9034 63.7125C25.9034 63.6829 25.9034 63.6384 25.9479 63.594L26.3479 62.9421C26.4664 63.1495 26.6293 63.4162 26.7775 63.6829C26.7923 63.7125 26.7775 63.7421 26.7775 63.7421C26.7478 63.7421 26.733 63.7421 26.733 63.7717C26.733 63.7866 26.7478 63.8014 26.8219 63.8014C27.0293 63.8014 27.2515 63.8014 27.3108 63.8014H27.3849C27.3849 63.8014 27.4441 63.8014 27.4441 63.7717C27.4441 63.7569 27.4293 63.7421 27.4145 63.7421C27.3849 63.7421 27.3552 63.7421 27.3108 63.7421C27.2367 63.7125 27.1923 63.6829 27.1478 63.6236C27.0738 63.5347 26.6441 62.8088 26.5553 62.6755L26.9997 62.0385V62.0237Z" fill="black"/>
<path d="M31.4438 63.328C31.4438 63.328 31.4734 63.328 31.4734 63.3428L31.592 63.6835C31.592 63.6835 31.592 63.7428 31.5623 63.7428C31.5327 63.7428 31.5179 63.7428 31.5179 63.7724C31.5179 63.7872 31.5475 63.7872 31.6068 63.802C31.829 63.802 32.0216 63.802 32.1253 63.802C32.229 63.802 32.2438 63.802 32.2438 63.7724C32.2438 63.7428 32.2438 63.7428 32.2142 63.7428C32.1845 63.7428 32.1401 63.7428 32.0956 63.7428C32.0364 63.7428 31.9623 63.6983 31.8586 63.4465C31.6808 63.0317 31.2512 61.9206 31.192 61.7725C31.1623 61.6984 31.1475 61.6836 31.1179 61.6836C31.0883 61.6836 31.0735 61.7132 31.0438 61.7873L30.3624 63.4909C30.3031 63.6243 30.2587 63.728 30.1253 63.7428C30.1105 63.7428 30.0661 63.7428 30.0365 63.7428C30.0068 63.7428 30.0068 63.7428 30.0068 63.7724C30.0068 63.802 30.0216 63.802 30.0661 63.802C30.1994 63.802 30.3624 63.802 30.392 63.802C30.4809 63.802 30.5994 63.802 30.6735 63.802C30.7031 63.802 30.7179 63.802 30.7179 63.7724C30.7179 63.7576 30.7179 63.7428 30.6735 63.7428H30.629C30.5401 63.7428 30.5253 63.7131 30.5253 63.6539C30.5253 63.6243 30.5401 63.5502 30.5698 63.4761L30.629 63.328C30.629 63.328 30.629 63.2983 30.6587 63.2983H31.4438V63.328ZM30.7031 63.1946C30.7031 63.1946 30.7031 63.1946 30.7031 63.1798L31.0438 62.2762C31.0438 62.2762 31.0438 62.2613 31.0586 62.2613C31.0586 62.2613 31.0586 62.2613 31.0735 62.2762L31.4142 63.1946C31.4142 63.1946 31.4142 63.2095 31.3994 63.2095H30.7031V63.1946Z" fill="black"/>
<path d="M33.1178 63.0017C33.1178 63.2536 33.1178 63.4758 33.1178 63.5795C33.1178 63.6536 33.0882 63.7128 33.0438 63.7276C33.0141 63.7276 32.9845 63.7276 32.9401 63.7276C32.9104 63.7276 32.8956 63.7276 32.8956 63.7573C32.8956 63.7721 32.9104 63.7869 32.9549 63.7869C33.0586 63.7869 33.2363 63.7869 33.2956 63.7869C33.3697 63.7869 33.5474 63.7869 33.7252 63.7869C33.7548 63.7869 33.7697 63.7869 33.7697 63.7573C33.7697 63.7424 33.7697 63.7276 33.7252 63.7276C33.6808 63.7276 33.6215 63.7276 33.5919 63.7276C33.503 63.7276 33.4882 63.6536 33.4882 63.5795C33.4882 63.461 33.4882 63.2536 33.4882 63.0017V61.8907H33.8289C34.0659 61.8907 34.14 61.9795 34.1548 62.0536V62.0832C34.1548 62.0832 34.1548 62.1425 34.1845 62.1425C34.1993 62.1425 34.1993 62.1277 34.2141 62.0981C34.2141 62.024 34.2141 61.8462 34.2141 61.787C34.2141 61.7425 34.2141 61.7277 34.1845 61.7277C34.1548 61.7277 34.0956 61.7425 33.9178 61.7425H32.8364C32.7475 61.7425 32.6438 61.7425 32.5697 61.7425C32.4956 61.7425 32.4808 61.7129 32.4512 61.7129C32.4364 61.7129 32.4216 61.7277 32.4216 61.7721C32.4216 61.787 32.3623 62.0388 32.3623 62.0832C32.3623 62.1129 32.3623 62.1277 32.3919 62.1277C32.4216 62.1277 32.4216 62.1277 32.4216 62.0981C32.4216 62.0832 32.4364 62.0388 32.466 61.9944C32.5104 61.9351 32.5697 61.9203 32.7327 61.9203H33.1326V63.0314L33.1178 63.0017Z" fill="black"/>
<path d="M37.8439 62.779C37.8439 62.779 37.8439 62.7494 37.8587 62.7494C37.9031 62.7494 38.1846 62.7494 38.2587 62.7494C38.3476 62.7494 38.3772 62.8087 38.392 62.8531C38.392 62.8827 38.4068 62.9272 38.4068 62.942C38.4068 62.9568 38.4068 62.9864 38.4364 62.9864C38.4661 62.9864 38.4661 62.9568 38.4661 62.9272C38.4661 62.9272 38.4661 62.779 38.4661 62.7198C38.4661 62.6457 38.4809 62.5716 38.4809 62.5568C38.4809 62.5568 38.4809 62.5272 38.4661 62.5272C38.4513 62.5272 38.4364 62.5272 38.4364 62.5568C38.4068 62.5865 38.3772 62.6013 38.3179 62.6013H37.8439C37.8439 62.6013 37.8291 62.6013 37.8291 62.5716V61.8902C37.8291 61.8902 37.8291 61.8457 37.8587 61.8457H38.2735C38.3772 61.8457 38.4364 61.905 38.4513 61.9346C38.4661 61.9791 38.4661 62.0235 38.4661 62.0383C38.4661 62.068 38.4661 62.0828 38.4957 62.0828C38.5253 62.0828 38.5253 62.068 38.5253 62.0383C38.5253 62.0087 38.5253 61.8457 38.5253 61.8161C38.5253 61.742 38.555 61.7124 38.555 61.6976C38.555 61.6828 38.555 61.668 38.5401 61.668C38.5253 61.668 38.5105 61.668 38.4957 61.668C38.4661 61.668 38.4365 61.668 38.3772 61.668C38.3179 61.668 37.7698 61.668 37.6661 61.668C37.592 61.668 37.4143 61.668 37.2809 61.668C37.2365 61.668 37.2217 61.668 37.2217 61.6976C37.2217 61.6976 37.2365 61.7124 37.2661 61.7124C37.3106 61.7124 37.355 61.7124 37.3698 61.7124C37.4587 61.7272 37.4883 61.7717 37.4883 61.8606C37.4883 61.9494 37.4883 62.0235 37.4883 62.4383V62.9124C37.4883 63.179 37.4883 63.3864 37.4735 63.4901C37.4735 63.5642 37.4439 63.6235 37.3995 63.6383C37.3698 63.6383 37.3402 63.6383 37.2958 63.6383C37.2661 63.6383 37.2513 63.6383 37.2513 63.6679C37.2513 63.6975 37.2661 63.6975 37.3106 63.6975C37.4143 63.6975 37.592 63.6975 37.6513 63.6975C37.7254 63.6975 37.9031 63.6975 38.0661 63.6975C38.1105 63.6975 38.1254 63.6975 38.1254 63.6679C38.1254 63.6531 38.1253 63.6383 38.0809 63.6383C38.0365 63.6383 37.9772 63.6383 37.9476 63.6383C37.8735 63.6383 37.8439 63.5642 37.8439 63.4901C37.8439 63.3716 37.8439 63.179 37.8439 62.9124V62.6902V62.779Z" fill="black"/>
<path d="M39.5912 63.0014C39.5912 63.2681 39.5912 63.4903 39.5912 63.594C39.5912 63.668 39.5616 63.7125 39.5171 63.7273C39.4875 63.7273 39.4579 63.7273 39.4282 63.7273C39.3986 63.7273 39.3838 63.7273 39.3838 63.7569C39.3838 63.7717 39.3986 63.7866 39.443 63.7866C39.5467 63.7866 39.7245 63.7866 39.7838 63.7866C39.8578 63.7866 40.0356 63.7866 40.2134 63.7866C40.243 63.7866 40.2726 63.7866 40.2726 63.7569C40.2726 63.7421 40.2726 63.7273 40.2282 63.7273C40.1838 63.7273 40.1245 63.7273 40.0949 63.7273C40.006 63.7273 39.9912 63.668 39.9912 63.594C39.9912 63.4755 39.9912 63.2681 39.9912 62.9866V62.5125C39.9912 62.0977 39.9912 62.0237 39.9912 61.9348C39.9912 61.8459 40.0208 61.7866 40.0949 61.7866C40.1245 61.7866 40.1541 61.7866 40.1838 61.7866C40.2134 61.7866 40.2282 61.7866 40.2282 61.757C40.2282 61.7422 40.2134 61.7422 40.1689 61.7422C40.0652 61.7422 39.9023 61.7422 39.843 61.7422C39.769 61.7422 39.5912 61.7422 39.4875 61.7422C39.443 61.7422 39.4282 61.7422 39.4282 61.757C39.4282 61.7866 39.4282 61.7866 39.4727 61.7866C39.5023 61.7866 39.5467 61.7866 39.5764 61.7866C39.6356 61.7866 39.6653 61.8459 39.6653 61.9348C39.6653 62.0237 39.6653 62.0977 39.6653 62.5125V62.9866L39.5912 63.0014Z" fill="black"/>
<path d="M41.2216 63.0014C41.2216 63.2532 41.2216 63.4755 41.2068 63.5792C41.2068 63.6532 41.1771 63.7125 41.1327 63.7273C41.1031 63.7273 41.0734 63.7273 41.029 63.7273C40.9994 63.7273 40.9845 63.7273 40.9845 63.7569C40.9845 63.7717 40.9994 63.7866 41.0438 63.7866C41.1475 63.7866 41.3253 63.7866 41.3845 63.7866C41.5179 63.7866 41.7697 63.8162 41.9623 63.8162C42.466 63.8162 42.7474 63.6236 42.8808 63.4903C43.0289 63.3273 43.1771 63.0755 43.1771 62.7347C43.1771 62.4236 43.0437 62.1866 42.9104 62.0533C42.6141 61.7422 42.1549 61.7422 41.829 61.7422C41.666 61.7422 41.4882 61.7422 41.4142 61.7422C41.3401 61.7422 41.1623 61.7422 41.029 61.7422C40.9845 61.7422 40.9697 61.7422 40.9697 61.7718C40.9697 61.7866 40.9845 61.8014 41.0142 61.8014C41.0586 61.8014 41.1031 61.8014 41.1179 61.8014C41.2068 61.8163 41.2216 61.8607 41.2364 61.9496C41.2364 62.0385 41.2364 62.1125 41.2364 62.5273V63.0014H41.2216ZM41.5623 62.4829V61.9348C41.5623 61.9348 41.5623 61.8903 41.5919 61.8755C41.6216 61.8755 41.7104 61.8607 41.7697 61.8607C41.9771 61.8607 42.2882 61.8903 42.54 62.1422C42.6586 62.2607 42.8067 62.4681 42.8067 62.8236C42.8067 63.1051 42.7474 63.3569 42.5845 63.4903C42.4215 63.6384 42.2438 63.6977 41.9623 63.6977C41.7401 63.6977 41.6364 63.6384 41.6067 63.594C41.5919 63.5643 41.5771 63.4458 41.5771 63.3866C41.5771 63.3421 41.5771 63.1347 41.5771 62.8384V62.4977L41.5623 62.4829Z" fill="black"/>
<path d="M44.1252 63.0021C44.1252 63.2539 44.1252 63.4761 44.1252 63.5798C44.1252 63.6539 44.0956 63.7131 44.0511 63.728C44.0215 63.728 43.9919 63.728 43.9474 63.728C43.9178 63.728 43.903 63.728 43.903 63.7576C43.903 63.7724 43.9178 63.7872 43.9623 63.7872C44.066 63.7872 44.2437 63.7872 44.303 63.7872C44.4659 63.7872 44.6437 63.802 45.0585 63.802C45.1622 63.802 45.1918 63.802 45.2067 63.728C45.2215 63.6835 45.2363 63.4909 45.2363 63.4317C45.2363 63.402 45.2363 63.3724 45.2215 63.3724C45.2067 63.3724 45.1918 63.3872 45.1918 63.4169C45.177 63.5206 45.1326 63.5946 45.0733 63.6243C44.9993 63.6539 44.8807 63.6539 44.8215 63.6539C44.54 63.6539 44.4956 63.6094 44.4956 63.4317C44.4956 63.3576 44.4956 63.1058 44.4956 63.0021V62.7947C44.4956 62.7947 44.4956 62.765 44.5104 62.765C44.5696 62.765 44.8511 62.765 44.8956 62.765C44.9993 62.765 45.0289 62.8095 45.0437 62.8687C45.0437 62.9132 45.0437 62.9428 45.0437 62.9576C45.0437 62.9724 45.0437 62.9872 45.0733 62.9872C45.103 62.9872 45.103 62.9576 45.103 62.9428C45.103 62.928 45.103 62.8095 45.103 62.765C45.103 62.6317 45.1178 62.5724 45.1178 62.5576C45.1178 62.5428 45.1178 62.528 45.103 62.528C45.103 62.528 45.0881 62.5428 45.0585 62.5576C45.0289 62.5873 44.9993 62.5873 44.9252 62.6021C44.8659 62.6021 44.5548 62.6021 44.4956 62.6021C44.4808 62.6021 44.4808 62.5873 44.4808 62.5724V61.8762C44.4808 61.8762 44.4808 61.8466 44.4956 61.8466C44.5548 61.8466 44.8363 61.8466 44.8807 61.8466C45.0141 61.8614 45.0437 61.891 45.0585 61.9503C45.0733 61.9799 45.0733 62.0243 45.0733 62.054C45.0733 62.0836 45.0733 62.0984 45.0881 62.0984C45.103 62.0984 45.1178 62.0836 45.1178 62.0688C45.1178 62.0391 45.1178 61.9206 45.1178 61.891C45.1178 61.7577 45.1474 61.728 45.1474 61.7132C45.1474 61.6984 45.1474 61.6836 45.1326 61.6836C45.1326 61.6836 45.103 61.6836 45.0881 61.6836C45.0733 61.6836 45.0289 61.6984 44.9696 61.6984C44.9252 61.6984 44.3771 61.6984 44.2882 61.6984C44.2141 61.6984 44.0511 61.6984 43.903 61.6984C43.8586 61.6984 43.8438 61.6984 43.8438 61.728C43.8438 61.7428 43.8437 61.7577 43.8882 61.7577C43.9326 61.7577 43.9771 61.7577 43.9919 61.7577C44.0808 61.7725 44.1104 61.8169 44.1104 61.9058C44.1104 61.9947 44.1104 62.0688 44.1104 62.4836V62.9576L44.1252 63.0021Z" fill="black"/>
<path d="M46.5693 62.5273C46.5693 62.1125 46.5693 62.0385 46.5693 61.9496C46.5693 61.8607 46.5989 61.8014 46.673 61.8014C46.7026 61.8014 46.7471 61.8014 46.7767 61.8014C46.8063 61.8014 46.8211 61.8014 46.8211 61.7718C46.8211 61.757 46.8063 61.7422 46.7619 61.7422C46.6582 61.7422 46.4656 61.7422 46.3915 61.7422C46.3175 61.7422 46.1397 61.7422 46.0212 61.7422C45.9767 61.7422 45.9619 61.7422 45.9619 61.7718C45.9619 61.7866 45.9767 61.8014 46.0064 61.8014C46.0508 61.8014 46.0804 61.8014 46.0952 61.8014C46.1841 61.8163 46.2138 61.8607 46.2138 61.9496C46.2138 62.0385 46.2138 62.1125 46.2138 62.5273V63.0014C46.2138 63.2532 46.2138 63.4755 46.1989 63.5792C46.1989 63.6532 46.1841 63.7125 46.1249 63.7273C46.0952 63.7273 46.0656 63.7273 46.0212 63.7273C45.9915 63.7273 45.9767 63.7273 45.9767 63.7569C45.9767 63.7717 45.9915 63.7866 46.036 63.7866C46.1397 63.7866 46.3175 63.7866 46.3767 63.7866C46.5989 63.7866 46.7767 63.8014 47.1619 63.8014C47.31 63.8014 47.31 63.8014 47.3396 63.7273C47.3545 63.6384 47.3841 63.4458 47.3841 63.4162C47.3841 63.3866 47.3841 63.3718 47.3545 63.3718C47.3248 63.3718 47.3248 63.3718 47.3248 63.4162C47.3248 63.4606 47.2804 63.5347 47.2508 63.5792C47.1767 63.6532 47.073 63.6532 46.9248 63.6532C46.7174 63.6532 46.6434 63.6384 46.5989 63.594C46.5397 63.5495 46.5397 63.3569 46.5397 63.0014V62.5273H46.5693Z" fill="black"/>
<path d="M48.273 63.0014C48.273 63.2681 48.273 63.4903 48.273 63.594C48.273 63.668 48.2434 63.7125 48.1989 63.7273C48.1693 63.7273 48.1397 63.7273 48.0952 63.7273C48.0656 63.7273 48.0508 63.7273 48.0508 63.7569C48.0508 63.7717 48.0656 63.7866 48.11 63.7866C48.2285 63.7866 48.3915 63.7866 48.4508 63.7866C48.5248 63.7866 48.7026 63.7866 48.8804 63.7866C48.91 63.7866 48.9248 63.7866 48.9248 63.7569C48.9248 63.7421 48.9248 63.7273 48.8804 63.7273C48.8359 63.7273 48.7915 63.7273 48.747 63.7273C48.673 63.7273 48.6433 63.668 48.6433 63.594C48.6433 63.4755 48.6433 63.2681 48.6433 62.9866V62.5125C48.6433 62.0977 48.6433 62.0237 48.6433 61.9348C48.6433 61.8459 48.673 61.7866 48.747 61.7866C48.7767 61.7866 48.8063 61.7866 48.8359 61.7866C48.8656 61.7866 48.8804 61.7866 48.8804 61.757C48.8804 61.7422 48.8656 61.7422 48.8211 61.7422C48.7174 61.7422 48.5545 61.7422 48.4952 61.7422C48.4211 61.7422 48.2434 61.7422 48.1397 61.7422C48.0952 61.7422 48.0656 61.7422 48.0656 61.757C48.0656 61.7866 48.0804 61.7866 48.11 61.7866C48.1397 61.7866 48.1841 61.7866 48.2137 61.7866C48.273 61.7866 48.3026 61.8459 48.3026 61.9348C48.3026 62.0237 48.3026 62.0977 48.3026 62.5125V62.9866L48.273 63.0014Z" fill="black"/>
<path d="M50.1391 63.8315C50.2872 63.8315 50.4354 63.8019 50.5687 63.713C50.7613 63.5945 50.8205 63.4019 50.8205 63.2389C50.8205 62.9723 50.702 62.7945 50.3761 62.5427L50.3021 62.4834C50.0798 62.3204 50.0058 62.2167 50.0058 62.0982C50.0058 61.9353 50.1243 61.8168 50.3317 61.8168C50.5094 61.8168 50.5835 61.9056 50.628 61.9501C50.6872 62.0242 50.702 62.0982 50.702 62.1279C50.702 62.1575 50.702 62.1723 50.7317 62.1723C50.7613 62.1723 50.7613 62.1575 50.7613 62.0982C50.7613 61.8908 50.7613 61.8019 50.7613 61.7723C50.7613 61.7427 50.7613 61.7427 50.7169 61.7427C50.6428 61.7279 50.5391 61.6982 50.3613 61.6982C49.9761 61.6982 49.7243 61.9205 49.7243 62.2167C49.7243 62.4241 49.828 62.6315 50.1243 62.8538L50.2428 62.9575C50.465 63.1352 50.5095 63.2537 50.5095 63.4019C50.5095 63.55 50.3909 63.713 50.1391 63.713C49.9761 63.713 49.8132 63.6389 49.7539 63.4315C49.7391 63.3871 49.7243 63.3278 49.7243 63.2982C49.7243 63.2834 49.7243 63.2537 49.6947 63.2537C49.665 63.2537 49.665 63.2834 49.665 63.3278C49.665 63.3723 49.665 63.5352 49.665 63.6834C49.665 63.7426 49.665 63.7574 49.7095 63.7871C49.828 63.8315 49.9465 63.8611 50.1095 63.8611L50.1391 63.8315Z" fill="black"/>
<path d="M41.9766 7.90765C42.0062 7.50766 41.2358 7.19656 41.0581 7.16693C40.747 7.15212 40.3322 7.80395 39.9322 8.21875C39.5618 6.26326 39.7544 5.43366 39.9618 4.55962C40.7914 6.05586 41.9025 6.38178 42.4802 6.30771C40.4951 4.72258 40.8359 3.2856 40.2433 3.21153C39.9026 3.16708 39.6507 3.19671 39.4729 3.19671C38.7767 3.19671 38.673 4.54481 38.5989 5.16701C38.1397 4.32259 37.71 3.62632 36.9397 2.6634C36.2138 0.781987 35.3101 1.25604 34.4065 0.396816C35.1027 1.46344 34.5398 2.13008 36.1842 2.90043C36.6138 3.30041 37.1027 3.93742 37.4434 4.45592C37.1619 4.82628 36.9841 5.03368 36.7175 5.27071C36.5101 5.58181 36.4064 6.73732 35.7842 7.62618C36.7175 7.21138 37.0878 6.64843 37.4286 6.08549C40.3914 8.32244 37.9767 14.0407 37.2952 15.3C36.6434 14.8555 35.8138 14.6037 35.0435 14.4704L34.9694 14.2185L34.2731 11.9668H34.599C34.9694 11.9668 35.0583 11.7149 34.999 11.5223L37.0434 12.1593L37.9471 12.4408L37.3841 11.6705L36.436 10.3668L37.3841 9.06316L37.9471 8.29282L37.0434 8.57429L35.2064 9.13723C35.0731 8.72243 34.7324 8.51503 34.362 8.47059L34.9842 6.38178L35.2509 5.49292L34.4953 6.04105L33.1769 6.98916L31.8732 6.04105L31.1177 5.49292L31.3844 6.38178L32.0066 8.47059C31.6362 8.51503 31.2807 8.72243 31.1621 9.13723L29.3252 8.57429L28.4215 8.29282L28.9844 9.06316L29.9326 10.3668L28.9844 11.6705L28.4215 12.4408L29.3252 12.1593L31.3844 11.5223C31.3251 11.7149 31.3992 11.9668 31.7843 11.9668H32.1103L31.414 14.2185L31.3399 14.4704C30.5548 14.6185 29.6955 14.8703 29.0437 15.3296C27.0438 11.4483 27.6067 7.53729 29.2807 6.23363C29.2511 7.06323 29.977 8.1743 30.3029 8.41133C30.0807 7.5521 30.4659 6.04105 30.0214 5.67069C29.7103 5.40404 29.2363 5.27071 28.7474 5.28552C29.0881 4.72258 29.5474 4.02631 30.3474 2.9745C31.5177 2.42637 31.8584 1.04864 32.1547 0.367188C30.8807 0.82643 29.9326 1.49307 29.74 2.57451C29.2807 3.16708 28.7919 3.87817 28.2289 4.70777C28.2585 3.68558 27.6956 3.34485 26.9697 3.2856C24.8068 3.73002 24.9698 5.30034 23.1328 6.36696C24.392 6.81139 26.3771 4.04112 27.0586 4.33741C27.1623 6.04105 26.7771 7.37433 26.7771 8.30763C26.4512 7.95209 26.2882 7.70025 26.0068 7.6558C25.7401 7.61136 25.029 7.67062 24.5254 8.21875C24.392 9.07797 24.4217 10.6927 23.6217 12.6334C24.8216 11.5371 25.3994 9.37426 25.592 8.75206C25.9031 9.18167 26.2438 10.1002 26.3179 10.9001C26.466 12.4408 27.4141 15.0185 28.2141 16.2629C27.9919 16.6925 27.9178 17.1814 28.0067 17.7147C27.3697 18.1739 27.3104 18.8258 27.5178 19.2702C27.7549 19.7442 28.3622 20.0553 29.0881 19.7739L29.3252 19.685C30.0807 19.3739 31.5177 18.7813 33.2361 18.7813C34.9546 18.7813 36.3768 19.3739 37.1471 19.685L37.3693 19.7739C38.0952 20.0553 38.7174 19.7442 38.9396 19.2702C39.1618 18.8258 39.0878 18.1739 38.4508 17.7147C38.5396 17.1369 38.4508 16.6184 38.1841 16.1592L38.2137 16.1888C39.6952 14.0852 39.784 10.0853 40.9988 8.92983C41.1025 10.3372 41.858 11.4927 42.5839 11.6557C41.9914 10.6927 41.9914 8.76687 42.0358 7.89283L41.9766 7.90765ZM35.2212 9.77424L36.3027 9.43352L35.7694 10.1594L35.636 10.352L35.7694 10.5298L36.3027 11.2557L34.925 10.8409C35.0435 10.5446 35.1472 10.2335 35.2064 9.75943L35.2212 9.77424ZM30.0066 11.2705L30.5399 10.5446L30.6733 10.3668L30.5399 10.1742L30.0066 9.44833L31.0881 9.78906C31.1473 10.2631 31.251 10.5742 31.3695 10.8705L29.9918 11.2853L30.0066 11.2705ZM34.3176 10.9149H33.4584L33.5621 9.38907C34.8509 8.81132 34.7324 10.0113 34.3176 10.9149ZM34.0657 13.5074L33.3398 12.9741L33.1473 12.8408L32.9695 12.9741L32.2436 13.5074L32.7176 11.9668H33.6065L34.0806 13.5074H34.0657ZM32.9695 7.62618L33.1473 7.7595L33.3398 7.62618L34.0806 7.07805L33.6509 8.51503C33.6509 8.51503 33.6213 8.51503 33.6065 8.52985C33.5324 8.35207 33.3547 8.23356 33.1473 8.23356C32.9399 8.23356 32.7621 8.35207 32.688 8.52985C32.688 8.52985 32.6584 8.52984 32.6436 8.51503L32.214 7.07805L32.9547 7.62618H32.9695ZM31.9917 10.9149C31.5769 10.0113 31.4584 8.82613 32.7473 9.38907L32.851 10.9149H31.9917ZM33.1473 13.6259L34.1694 14.3667C33.725 14.3222 33.3695 14.3222 33.1473 14.3222C32.925 14.3222 32.5547 14.3222 32.1251 14.3667L33.1473 13.6259ZM28.94 18.9739L28.7178 19.0628C28.4215 19.1813 28.2141 19.0776 28.14 18.9295C28.066 18.7813 28.1104 18.5147 28.4808 18.2776C28.5252 18.248 28.5845 18.2184 28.6289 18.1887L29.3548 18.7813C29.2067 18.8406 29.0585 18.8998 28.94 18.9591V18.9739ZM31.414 18.1887L30.6585 17.448C31.2807 17.2999 31.9325 17.1814 32.5695 17.1517L33.0287 18.0258C32.451 18.0258 31.9177 18.0999 31.4288 18.2036L31.414 18.1887ZM35.5768 18.3517L35.1324 17.3295C35.799 17.4628 36.436 17.6554 36.999 17.8925L37.2508 18.9443C36.836 18.7665 36.2582 18.5443 35.562 18.3517H35.5768ZM33.1473 16.337C31.7251 16.337 30.1251 16.6777 28.8807 17.211C28.8956 16.9443 28.9993 16.6925 29.177 16.4851C29.8881 15.6259 31.7695 15.3148 33.1473 15.3148C34.525 15.3148 36.4064 15.6259 37.1175 16.4851C37.2952 16.6925 37.3841 16.9295 37.4138 17.211C36.1842 16.6629 34.599 16.337 33.1473 16.337Z" fill="black"/>
<path d="M22.9999 38.9438C23.1925 37.2994 22.9258 37.1809 22.4517 36.7957C22.0369 36.455 21.3703 36.3513 20.6888 35.8772C20.2 35.5365 20.0666 35.0624 19.4593 34.4106C19.6074 32.7218 21.4296 30.6478 22.0369 30.9589V30.1145C21.2666 29.8478 19.8444 30.6182 18.6445 33.4625C18.5111 33.3144 18.3926 33.2551 18.2593 33.1662C18.3482 32.5144 18.126 31.9663 17.7112 31.4626C18.126 31.1811 19.3704 30.6034 20.0666 30.0997C20.8518 29.5219 20.9999 29.2849 21.9777 29.5219C21.9777 29.5219 22.1555 29.3145 22.2147 29.0775C21.5036 28.1738 20.4814 28.4257 19.7852 29.2553C19.237 29.6997 17.963 30.5441 17.1038 30.8404C15.9187 29.8478 14.0817 28.959 12.7484 27.6257C12.7484 27.6257 14.5261 27.6109 15.3409 27.2701C15.5631 27.1368 16.1261 26.2331 15.9038 25.3591C15.6224 25.2554 15.2224 25.0628 14.8372 24.8258C14.3483 24.5591 13.8743 24.248 13.6669 24.0851C12.8817 23.4925 12.5706 22.9888 11.2373 22.6481C11.3262 22.0407 11.4596 22.174 12.0373 21.7741C12.7928 21.2704 13.2076 20.663 13.5039 20.0556C13.741 19.5815 13.4743 18.6186 12.8817 19.8482C12.6743 20.2778 12.0818 20.8556 11.4299 21.0333C11.4744 20.6482 11.504 20.426 11.504 20.2334C13.4595 18.8556 13.2669 17.6409 13.1188 16.4854C13.0299 15.8187 12.3632 15.5521 12.3929 16.2335C12.4077 16.6928 12.8225 17.9816 11.4892 18.7519C11.4596 18.1742 11.2966 17.9223 11.1781 17.6261C12.3632 16.0558 11.8595 14.5447 11.3707 13.8484C11.0596 13.404 10.2596 13.2559 10.6151 13.9521C10.9114 14.5299 11.3855 16.0854 10.4966 16.7076C10.1855 16.3224 9.82999 16.1743 9.71148 15.6558C9.80036 13.9521 9.69666 12.9151 9.47445 12.3077C9.26705 11.73 8.71892 11.3893 8.76336 12.2189C8.80781 13.167 8.89669 14.3669 8.80781 14.441C8.71892 14.5151 7.45971 13.3447 6.94121 12.9892C6.42271 12.6337 5.81533 12.767 6.4079 13.4781C6.94121 14.1003 8.55596 15.2854 8.34856 15.6558C8.21524 15.8928 7.05972 14.9447 6.46715 14.7521C5.85977 14.5447 5.682 14.8558 6.18568 15.2706C7.01528 15.9521 7.54859 16.3817 8.89669 16.8409C10.2448 17.2853 10.9262 19.1667 10.4966 21.8333C10.4818 21.9518 10.2448 21.937 10.1115 21.8926C10.0522 20.8704 9.87443 19.6556 9.62259 19.1223C9.29668 18.4112 8.67448 18.3964 8.89669 19.3593C9.08928 20.1149 9.19298 20.9296 9.05965 21.9518C7.94858 21.7592 7.51897 21.463 7.04491 21.1815C7.00047 20.6778 7.26712 19.8186 7.31157 19.063C7.35601 18.3075 6.91158 17.8483 6.65974 18.7816C6.42271 19.6852 6.25975 20.1149 6.11161 20.7667C5.7857 20.663 5.45978 20.5148 5.29683 20.3371C5.22276 20.263 5.29683 19.2408 5.22276 18.5001C5.13387 17.6705 4.82277 17.7001 4.57093 18.426C4.45241 18.7668 4.36353 19.2112 4.3339 19.7445C3.93391 19.5075 3.66726 19.0482 3.63763 18.6927C3.69689 17.8186 3.84503 16.9002 3.94873 16.3224C4.0228 15.9076 3.74133 15.0632 3.41542 16.0854C3.17839 16.8113 3.11913 17.4187 2.97099 17.9372C2.68952 17.9223 2.31916 16.2632 2.12658 15.2113C2.03769 14.7225 1.6377 14.1892 1.56363 15.2558C1.48956 16.4261 1.72659 17.6261 2.02288 18.1446C1.44512 18.0853 0.911806 17.0631 0.511821 16.4557C0.156278 15.9224 -0.0066786 16.4705 0.0229499 16.6928C0.363678 18.7964 2.03769 19.5371 2.79322 19.6852C3.96354 21.3741 6.21531 22.0852 8.11154 22.9148C5.63756 22.8851 5.00054 23.8777 3.87466 23.2407C3.9191 24.174 4.37834 24.6036 4.83758 24.811C5.14868 24.9591 5.45978 25.0036 5.60793 25.0332C5.81533 26.1591 6.88195 26.0998 7.80044 26.1591C7.56341 28.3664 7.83007 31.27 9.77073 33.4329C9.71148 34.5588 9.63741 36.0254 9.65222 36.9883C8.06709 38.4549 6.65974 41.5363 6.0968 43.2399C5.682 44.5139 5.0598 45.5065 4.08206 45.9657C4.86721 46.7953 6.05235 46.3954 6.719 45.9213C6.76344 46.662 6.94121 47.1953 7.05972 47.6398C6.60048 48.3212 6.28938 48.7804 6.33383 49.61C5.81533 49.7582 5.45978 50.0693 5.19313 50.4248C5.01536 50.647 5.22276 51.6544 5.41534 52.084C6.05235 53.4914 5.56348 56.6913 5.44497 57.6246C5.71163 57.6394 6.18568 57.6542 6.28938 57.2542C6.43753 57.4023 6.83751 57.6838 7.01528 58.2912C6.97084 58.5579 6.8227 59.5356 7.32638 59.6541C7.74118 59.7578 9.51889 59.6986 9.74111 59.3875C9.56333 59.1949 9.25223 58.706 9.05965 58.2468C9.05965 57.7579 9.01521 57.1801 8.88188 56.9283C8.67448 56.5727 8.15598 55.758 7.84488 55.4321C7.77081 54.8395 7.71155 52.247 7.99302 51.2396C8.45227 50.9137 11.5781 48.6027 12.2151 46.3805C12.7928 46.5731 12.6151 48.1286 12.6151 50.1285C12.6151 50.6619 13.2669 50.9433 13.6669 51.0026C14.5113 51.1063 15.7113 51.9063 17.0594 53.9062C17.326 53.6247 17.6667 53.3729 17.6667 53.3729C17.8445 53.6099 18.0519 54.1728 18.1704 54.5432C18.3186 54.8247 19.4 54.9876 20.2444 54.7358C20.5259 54.6469 20.6888 54.6025 20.8666 54.3062C19.8 52.4544 19.1778 51.2248 17.8149 50.2026C17.1779 49.7286 16.3483 49.4915 15.6372 49.0471C16.1112 48.1582 17.4001 44.0251 16.6149 42.514C16.3483 42.0103 15.3705 41.5215 14.1706 41.7437C15.1631 40.5437 17.2075 38.1586 17.4741 37.4327C17.7112 37.7142 18.9111 37.5216 19.8 37.8623C20.1259 37.9809 21.0444 39.166 21.0888 39.5808C21.1629 40.3067 21.2073 41.1807 20.7037 43.1807C21.0592 43.1214 20.9999 43.1066 21.3555 42.9584C21.4147 43.5066 21.2518 43.9066 20.7777 44.7213C20.8962 45.4472 21.2222 46.5583 21.5481 46.7657C22.0073 45.4176 23.6813 43.5066 23.6369 42.3807C23.5776 40.8696 22.8665 39.5808 22.9554 38.9142L22.9999 38.9438ZM6.74862 24.8406C6.5116 24.574 6.39308 24.248 6.27457 24.1591C7.20787 23.5666 8.37819 24.0555 9.07446 23.374C9.53371 23.6258 10.1855 23.374 10.4818 23.3296C11.4596 23.1814 12.6743 24.2036 13.5632 24.8406C13.9484 25.1221 14.2595 25.3295 14.4817 25.3443C14.2298 26.1146 14.3039 26.2628 14.9557 26.3961C14.9261 26.6183 14.7335 26.7665 14.0076 26.6924C13.2521 26.6183 12.378 26.6331 11.9632 26.6776C9.74111 27.8331 9.01521 25.9813 9.03002 24.8406C9.03002 24.8406 9.01521 24.8406 9.00039 24.8406C7.71155 25.5665 7.10417 25.2554 6.74862 24.8406ZM15.6964 43.0473C16.4816 44.0251 15.3705 48.1138 14.9557 48.8397C14.5854 49.4915 15.2668 49.9211 15.6076 50.01C17.2371 50.4248 18.8519 51.9803 19.3852 53.1507L18.8074 53.3729C17.5927 51.7137 17.2668 52.2618 16.9557 52.5729C16.6446 52.0248 15.1779 50.3804 14.2446 50.2915C13.3854 50.2174 13.4002 49.6989 13.4447 49.2545C13.5632 48.3805 13.5187 47.0916 13.415 46.3954C13.2965 45.8176 12.7928 45.151 12.4373 45.1213C12.6151 44.6769 12.3929 43.2844 13.578 42.6918C14.4669 42.2622 15.5039 42.7955 15.6816 43.0325L15.6964 43.0473ZM22.3332 43.9214C22.1999 43.9214 22.0814 43.8769 22.0073 43.714C22.274 42.7659 22.348 42.277 22.2888 42.0844C22.0666 42.1585 21.9036 42.1585 21.7999 42.0992C22.0518 40.5733 21.8888 39.6252 21.7258 39.0327C21.5481 38.3957 20.7185 37.5216 20.437 37.3735C19.9778 37.1216 19.5926 36.855 18.7037 36.7513C16.852 35.1958 16.3483 36.1291 15.0298 35.9809C14.852 35.7439 14.4965 35.418 14.4965 35.418L13.9039 35.8328C13.9039 35.8328 14.4669 36.5439 14.5854 37.0031C14.5854 37.0031 15.7853 36.7809 16.7038 37.0031C16.3483 38.1586 14.7335 39.7289 13.1632 41.477C11.4892 43.3436 11.4744 43.7584 11.5188 45.225C11.5633 46.9583 9.16335 49.5508 7.3412 50.7804C7.17824 51.2248 6.97084 55.0617 7.22268 55.6543C7.35601 55.8765 7.87451 56.469 8.18561 56.9579C8.33375 57.1801 8.28931 57.6986 8.36338 58.2023C8.11154 58.2319 7.93377 58.2023 7.74118 58.1134C7.62267 57.5801 7.17824 56.8542 6.37827 56.3357C6.57085 54.1877 6.79307 53.047 6.03754 50.9285C5.97828 50.7359 6.97084 50.173 6.97084 50.173C6.97084 50.173 7.31157 48.6027 8.21524 47.8323C7.56341 46.1731 7.47452 43.9362 7.47452 43.9362C7.47452 43.9362 7.08935 44.4547 6.43753 44.8695C8.14117 39.4623 8.48189 41.003 10.4818 37.0624C11.8744 30.7663 8.21524 29.4923 8.76336 27.2998C10.0374 28.4997 10.704 28.1294 11.741 27.8331C12.6743 28.6182 14.0521 30.396 15.3261 30.8404C17.3853 31.5367 17.3704 33.4625 17.0445 34.3662C17.8889 34.3662 18.5852 34.6773 18.9111 35.1661C20.3481 37.3883 21.2962 36.7216 22.0518 37.6549C22.4221 38.0994 22.0518 39.3586 22.4962 40.4696C22.7925 41.1955 22.911 42.0844 22.911 42.3362C22.8665 42.7066 22.3777 43.3881 22.3036 43.9066L22.3332 43.9214Z" fill="black"/>
<path d="M11.4146 25.3142C11.8442 25.2698 12.0516 25.0476 12.422 25.1957C12.3776 25.0624 12.1553 25.0624 12.1109 24.9587C12.1109 24.9142 12.1109 24.8846 12.1109 24.8402C12.0665 24.4402 11.9331 24.1143 11.2813 24.0254C11.1183 24.3661 10.5406 24.618 10.2295 24.7957C10.3184 24.7957 10.4073 24.8254 10.4665 24.8402C10.8813 24.9883 10.8221 25.3735 11.4146 25.3142Z" fill="black"/>
<path d="M44.2434 28.9434H21.6369V37.2838C21.7998 37.3727 21.948 37.4912 22.0813 37.669C22.4517 38.1134 22.0813 39.3726 22.5257 40.4837C22.5406 40.5281 22.5554 40.5874 22.5702 40.6466H32.8068V56.9719C31.6217 56.4979 29.1477 55.3276 26.8959 53.135C24.1257 50.4537 22.6591 47.1649 22.4813 43.3873C22.4072 43.565 22.3332 43.7576 22.3183 43.9206C22.185 43.9206 22.0665 43.8761 21.9924 43.7132C22.2591 42.7651 22.3332 42.2762 22.2739 42.0836C22.0517 42.1577 21.8887 42.1577 21.785 42.0984C22.0369 40.5726 21.8739 39.6244 21.711 39.0319C21.6961 38.9578 21.6517 38.8689 21.6221 38.78V42.6762C21.6221 47.0019 23.2072 50.7203 26.3182 53.7276C29.044 56.3794 32.1106 57.609 32.9994 57.9201L33.1328 57.9645L33.2809 57.9201C34.1549 57.609 37.2215 56.3646 39.9621 53.7276C43.0731 50.7203 44.6582 47.0019 44.6582 42.6762V41.9799C44.3916 42.4095 44.1101 42.691 43.8286 42.7354C43.8138 46.7945 42.3176 50.2907 39.3844 53.1202C37.1326 55.2979 34.6586 56.4683 33.4735 56.9571V40.6318H43.8286V42.1429C44.8805 40.7948 44.4064 37.2838 43.8286 36.8838V39.9652H22.4665V29.773H43.8286V36.8097C44.1249 36.6023 44.4212 36.8097 44.6582 37.269V28.9434H44.2434Z" fill="black"/>
</g>
<defs>
<clipPath id="clip0_104_155">
<rect width="198.393" height="64.7383" fill="white" transform="translate(0.0820312 0.381836)"/>
</clipPath>
</defs>
</svg>
