<svg width="271" height="38" viewBox="0 0 271 38" fill="none" xmlns="http://www.w3.org/2000/svg">
<g clip-path="url(#clip0_104_154)">
<path d="M145.552 8.21155H149.708V29.7476H144.41L138.24 19.8454C137.189 18.1138 136.291 16.2667 136.291 16.2667H136.227V29.7476H132.045V8.21155H136.945L144.256 19.948C144.744 20.7176 145.167 21.5385 145.513 22.3851V8.21155H145.552ZM169.474 17.0363H162.226V8.21155H156.942V29.7476H162.226V20.5637H169.474V29.7476H174.784V8.21155H169.474V17.0363ZM92.09 20.3841H98.9652V17.1518H92.09V11.5465H101.287V8.22438H86.7926V29.7604H101.454V26.1689H92.1029V20.3969L92.09 20.3841ZM73.0039 13.1114C72.6576 12.7137 72.7089 12.098 73.1065 11.7517C73.2989 11.585 73.5426 11.508 73.7863 11.5208H81.6619V8.21155H72.3369C69.8485 8.13459 67.745 10.0458 67.6039 12.5341C67.6039 13.7912 67.6937 14.7147 69.592 16.7028L76.6082 24.0525C77.1085 24.4886 77.1598 25.2454 76.7237 25.7328C76.4928 26.0022 76.1465 26.1561 75.8001 26.1433H67.1549V29.7347H77.0572C79.8662 29.8245 82.2263 27.6312 82.3289 24.8093C82.3289 24.758 82.3289 24.7195 82.3289 24.6682C82.3289 23.2444 81.9954 22.2953 80.1099 20.3456L73.0039 13.0985V13.1114ZM120.655 22.3466C120.309 21.5 119.885 20.6919 119.398 19.9095L112.087 8.17307H107.187V29.7347H111.343V16.2795H111.407C111.407 16.2795 112.266 18.1522 113.357 19.8582L119.539 29.7604H124.837V8.21155H120.681V22.3594H120.642L120.655 22.3466ZM237.545 20.3841H244.42V17.1518H237.545V11.5465H246.742V8.22438H232.247V29.7604H246.908V26.1689H237.558V20.3969L237.545 20.3841ZM270.163 29.7476H264.404L260.274 20.91H257.952V29.7476H252.655V8.21155H262.313C266.969 8.21155 269.124 11.1104 269.124 14.4582C269.124 17.0876 267.457 19.4221 264.968 20.2943L270.15 29.7476H270.163ZM264.596 14.5992C264.596 13.5988 264.019 11.5337 261.223 11.5337H257.939V17.6648H261.159C264.07 17.6648 264.596 15.5228 264.596 14.5992ZM218.382 13.1242C218.035 12.7265 218.087 12.1109 218.484 11.7645C218.677 11.5978 218.92 11.5208 219.164 11.5337H227.04V8.21155H217.676C215.188 8.13459 213.084 10.0458 212.943 12.5341C212.943 13.7912 213.033 14.7147 214.931 16.7028L221.948 24.0525C222.473 24.4502 222.563 25.2069 222.166 25.7328C221.922 26.0407 221.55 26.2074 221.165 26.1946H212.494V29.7861H222.396C225.206 29.8758 227.566 27.6825 227.668 24.8606C227.668 24.8093 227.668 24.7708 227.668 24.7195C227.668 23.2957 227.335 22.3466 225.449 20.3969L218.382 13.1114V13.1242ZM187.315 20.3841H194.191V17.1389H187.328V11.5337H196.525V8.21155H182.031V29.7476H196.692V26.1561H187.341V20.3841H187.315ZM202.438 29.7604H207.736V8.21155H202.438V29.7476V29.7604ZM0.545898 0.810547V37.1486H48.9923V0.810547H0.545898ZM27.2126 4.15831C24.3266 5.26141 21.5689 7.71131 19.337 12.5983C18.6828 14.022 17.4643 16.7541 16.9128 17.9855C12.4234 27.8364 10.1274 29.9528 3.34212 29.9528V3.52981H27.0843C27.2639 3.52981 27.4178 3.65807 27.4178 3.82482C27.4178 3.96591 27.3409 4.10701 27.1998 4.14549L27.2126 4.15831ZM46.2474 7.98067V34.4165H22.4539C22.2743 34.4165 22.1332 34.2882 22.1204 34.1087C22.1204 33.9676 22.2102 33.8393 22.3385 33.8008C25.2245 32.6977 27.9822 30.2478 30.214 25.3608C30.8682 23.9371 32.0867 21.205 32.6383 19.9736C37.1148 10.1227 39.4236 8.00632 46.1961 8.00632H46.2346L46.2474 7.98067Z" fill="black"/>
</g>
<defs>
<clipPath id="clip0_104_154">
<rect width="269.617" height="36.338" fill="white" transform="translate(0.545898 0.810547)"/>
</clipPath>
</defs>
</svg>
