<svg width="49" height="37" viewBox="0 0 49 37" fill="none" xmlns="http://www.w3.org/2000/svg">
<g clip-path="url(#clip0_104_224)">
<path d="M145.552 7.95667H149.708V29.4927H144.41L138.24 19.5905C137.189 17.8589 136.291 16.0118 136.291 16.0118H136.227V29.4927H132.045V7.95667H136.945L144.256 19.6931C144.744 20.4627 145.167 21.2836 145.513 22.1302V7.95667H145.552ZM169.474 16.7814H162.226V7.95667H156.942V29.4927H162.226V20.3088H169.474V29.4927H174.784V7.95667H169.474V16.7814ZM92.09 20.1292H98.9652V16.8969H92.09V11.2916H101.287V7.9695H86.7926V29.5055H101.454V25.914H92.1029V20.142L92.09 20.1292ZM73.0039 12.8565C72.6576 12.4588 72.7089 11.8432 73.1065 11.4968C73.2989 11.3301 73.5426 11.2531 73.7863 11.266H81.6619V7.95667H72.3369C69.8485 7.87971 67.745 9.79089 67.6039 12.2793C67.6039 13.5363 67.6937 14.4598 69.592 16.4479L76.6082 23.7976C77.1085 24.2337 77.1598 24.9905 76.7237 25.4779C76.4928 25.7473 76.1465 25.9012 75.8001 25.8884H67.1549V29.4799H77.0572C79.8662 29.5697 82.2263 27.3763 82.3289 24.5544C82.3289 24.5031 82.3289 24.4646 82.3289 24.4133C82.3289 22.9896 81.9954 22.0404 80.1099 20.0907L73.0039 12.8436V12.8565ZM120.655 22.0917C120.309 21.2451 119.886 20.437 119.398 19.6546L112.087 7.91819H107.187V29.4799H111.343V16.0247H111.407C111.407 16.0247 112.266 17.8974 113.357 19.6033L119.539 29.5055H124.837V7.95667H120.681V22.1045H120.642L120.655 22.0917ZM237.545 20.1292H244.42V16.8969H237.545V11.2916H246.742V7.9695H232.247V29.5055H246.908V25.914H237.558V20.142L237.545 20.1292ZM270.163 29.4927H264.404L260.274 20.6551H257.952V29.4927H252.655V7.95667H262.313C266.969 7.95667 269.124 10.8555 269.124 14.2033C269.124 16.8327 267.457 19.1672 264.968 20.0394L270.15 29.4927H270.163ZM264.596 14.3444C264.596 13.3439 264.019 11.2788 261.223 11.2788H257.939V17.4099H261.159C264.07 17.4099 264.596 15.2679 264.596 14.3444ZM218.382 12.8693C218.035 12.4717 218.087 11.856 218.484 11.5097C218.677 11.3429 218.92 11.266 219.164 11.2788H227.04V7.95667H217.676C215.188 7.87971 213.084 9.79089 212.943 12.2793C212.943 13.5363 213.033 14.4598 214.931 16.4479L221.948 23.7976C222.473 24.1953 222.563 24.952 222.166 25.4779C221.922 25.7858 221.55 25.9525 221.165 25.9397H212.494V29.5312H222.396C225.206 29.621 227.566 27.4276 227.668 24.6057C227.668 24.5544 227.668 24.5159 227.668 24.4646C227.668 23.0409 227.335 22.0917 225.449 20.142L218.382 12.8565V12.8693ZM187.315 20.1292H194.191V16.8841H187.328V11.2788H196.525V7.95667H182.031V29.4927H196.692V25.9012H187.341V20.1292H187.315ZM202.438 29.5055H207.736V7.95667H202.438V29.4927V29.5055ZM0.545898 0.555664V36.8937H48.9923V0.555664H0.545898ZM27.2126 3.90343C24.3266 5.00653 21.5689 7.45643 19.337 12.3434C18.6828 13.7672 17.4643 16.4993 16.9128 17.7306C12.4234 27.5815 10.1274 29.6979 3.34212 29.6979V3.27492H27.0843C27.2639 3.27492 27.4178 3.40319 27.4178 3.56994C27.4178 3.71103 27.3409 3.85213 27.1998 3.89061L27.2126 3.90343ZM46.2474 7.72579V34.1616H22.4539C22.2743 34.1616 22.1332 34.0333 22.1204 33.8538C22.1204 33.7127 22.2102 33.5844 22.3385 33.5459C25.2245 32.4428 27.9822 29.9929 30.2141 25.106C30.8682 23.6822 32.0868 20.9501 32.6383 19.7188C37.1148 9.86785 39.4236 7.75144 46.1961 7.75144H46.2346L46.2474 7.72579Z" fill="black"/>
</g>
<defs>
<clipPath id="clip0_104_224">
<rect width="48.1719" height="36.338" fill="white" transform="translate(0.545898 0.555664)"/>
</clipPath>
</defs>
</svg>
