<svg width="176" height="67" viewBox="0 0 176 67" fill="none" xmlns="http://www.w3.org/2000/svg">
<g clip-path="url(#clip0_104_152)">
<path d="M100.639 28.9217L105.099 16.6617C103.919 15.9117 102.249 15.4717 100.459 15.4717C96.4686 15.4717 93.5886 17.5717 90.9886 23.9817V16.1217H82.6186L69.0586 53.4617H81.1886L88.6486 32.7917C93.0986 20.4717 99.9086 25.5317 100.629 28.9217" fill="black"/>
<path d="M34.3482 42.0618C38.6482 30.2018 22.3682 22.4618 25.2682 14.5118C26.0882 12.2618 27.7582 11.0018 30.4582 11.0018C34.4782 11.0018 38.5082 14.2318 40.1682 21.0318L45.1582 7.3618C41.9182 4.3218 38.3182 2.8418 31.9982 2.8418C23.4882 2.8418 16.4982 6.7218 13.5982 14.6818C8.95824 27.3818 24.9782 35.1918 22.3082 42.5218C21.3382 45.1918 19.3682 46.3418 16.4982 46.3418C12.6382 46.3418 7.91824 42.0518 5.76824 35.3718L0.448242 49.9518C3.61824 53.5318 8.18824 54.7718 13.6782 54.7718C24.0082 54.7718 31.1882 50.7618 34.3482 42.0618Z" fill="black"/>
<path d="M58.7882 16.1313L46.5882 16.1113L28.1982 66.6813H40.3282L56.2882 22.7813C61.3682 22.7813 63.4582 27.2213 60.1482 36.3013C57.7982 42.7213 53.9182 49.0513 46.3982 53.5913C57.9482 53.5913 67.7282 49.0313 72.7082 35.4213C77.6782 21.8013 69.3982 16.1413 58.7982 16.1413" fill="black"/>
<path d="M116.568 16.9118C121.098 16.9118 124.778 13.2518 124.778 8.73176C124.778 4.21176 121.098 0.551758 116.568 0.551758C112.038 0.551758 108.358 4.21176 108.358 8.73176C108.358 13.2518 112.038 16.9118 116.568 16.9118Z" fill="black"/>
<path d="M165.388 15.4719C153.868 15.4719 146.148 23.2019 141.978 34.6119C138.238 44.8619 141.678 54.0019 152.318 54.0019C161.578 54.0019 168.678 48.1519 172.058 41.6119C168.268 44.7219 163.498 47.2119 159.378 47.2119C153.808 47.2119 152.118 41.0819 154.528 34.4719C157.468 26.4319 161.628 20.2819 164.738 20.2819C168.778 20.2819 165.078 31.6919 155.078 37.0419C166.408 37.0419 172.698 33.9119 175.348 26.6419C177.558 20.6019 172.938 15.4619 165.378 15.4619" fill="black"/>
<path d="M148.268 16.022H141.668L145.968 4.25195H140.008C136.048 13.512 128.888 18.642 121.128 19.912L119.518 24.242H126.548L115.938 53.462H128.068L138.678 24.242H145.278L148.268 16.022Z" fill="black"/>
<path d="M107.298 17.8818L94.3779 53.4518H106.508L118.598 20.1718C114.738 20.3418 111.008 19.6618 107.298 17.8818Z" fill="black"/>
</g>
<defs>
<clipPath id="clip0_104_152">
<rect width="175.46" height="66.13" fill="white" transform="translate(0.448242 0.551758)"/>
</clipPath>
</defs>
</svg>
