<svg width="150" height="35" viewBox="0 0 150 35" fill="none" xmlns="http://www.w3.org/2000/svg">
<g clip-path="url(#clip0_104_233)">
<path d="M126.464 33.3305H133.82V19.8938C133.82 16.8255 135.614 14.6575 138.254 14.6575C140.893 14.6575 142.118 16.4519 142.118 18.9935V33.3244H149.473V17.5788C149.473 12.2507 146.27 8.47811 141.083 8.47811C137.782 8.47811 135.473 9.89282 133.728 12.4834H133.587V9.18241H126.471V33.3244L126.464 33.3305ZM112.036 8.52711C104.35 8.52711 99.2113 14.0451 99.2113 21.3085C99.2113 28.5719 104.35 34.0899 112.036 34.0899C119.722 34.0899 124.86 28.529 124.86 21.3085C124.86 14.088 119.722 8.52711 112.036 8.52711ZM111.987 28.6638C108.496 28.6638 106.658 25.7425 106.658 21.3085C106.658 16.8745 108.496 13.9532 111.987 13.9532C115.477 13.9532 117.407 16.8316 117.407 21.3085C117.407 25.7425 115.477 28.6638 111.987 28.6638ZM78.2785 33.3305H98.9296V27.5308H87.2383V27.3899L98.409 14.8474V9.18853H78.2785V14.9882H89.5962V15.1291L78.2785 27.7635V33.3244V33.3305ZM68.8471 33.3305H76.2513V9.18853H68.8471V33.3305ZM51.6807 33.3305H59.036V22.2516C59.036 17.2052 62.0552 14.9882 66.673 15.6007H66.8138V9.23753C66.4341 9.09667 66.0115 9.04767 65.3072 9.04767C62.4288 9.04767 60.4997 10.3644 58.8461 13.1999H58.7052V9.19466H51.6807V33.3366V33.3305ZM38.1521 28.7128C34.9001 28.7128 32.922 26.5938 32.5423 23.3356H49.9414C49.9904 18.1484 48.6247 13.9961 45.7462 11.4055C43.7191 9.51924 41.0305 8.47811 37.6377 8.47811C30.3804 8.47811 25.334 13.9961 25.334 21.2105C25.334 28.4249 30.1416 34.0348 38.1154 34.0348C41.1347 34.0348 43.5354 33.2325 45.5196 31.8668C47.6387 30.4031 49.1514 28.2841 49.5739 26.1651H42.5004C41.7961 27.7635 40.3324 28.7066 38.1644 28.7066L38.1521 28.7128ZM37.7724 13.7634C40.3691 13.7634 42.1574 15.6987 42.4391 18.5281H32.5851C33.1486 15.6497 34.7041 13.7634 37.7724 13.7634ZM68.8471 0.608398H76.2513V7.16139H68.8471V0.608398Z" fill="black"/>
<path d="M0.132812 9.1875L9.28863 33.0294C9.35599 33.2131 9.5336 33.3295 9.72345 33.3295H17.1522C16.9562 33.3295 16.7848 33.2131 16.7174 33.0294L7.56158 9.1875H0.132812Z" fill="black"/>
<path d="M26.7421 9.1875L17.5862 33.0294C17.5189 33.2131 17.3413 33.3295 17.1514 33.3295H9.72266C9.91863 33.3295 10.0901 33.2131 10.1575 33.0294L19.3133 9.1875H26.7421Z" fill="black"/>
</g>
<defs>
<clipPath id="clip0_104_233">
<rect width="149.341" height="33.4754" fill="white" transform="translate(0.132812 0.608398)"/>
</clipPath>
</defs>
</svg>
